<?xml version="1.0" standalone="no"?>

<!DOCTYPE svg PUBLIC "-//W3C//DTD SVG 20010904//EN"

 "http://www.w3.org/TR/2001/REC-SVG-20010904/DTD/svg10.dtd">

<svg version="1.0" xmlns="http://www.w3.org/2000/svg"

 width="512.000000pt" height="368.000000pt" viewBox="0 0 512.000000 368.000000"

 preserveAspectRatio="xMidYMid meet">

<path fill="#ffffff" stroke="none" d="
"/>

<path fill="#ffffff" stroke="none" d="
M167 367

C161 364 159 357 163 346

L166 340

L166 340

C164 339 141 321 136 316

C129 310 129 310 120 310

C108 309 101 307 89 301

C72 293 56 279 46 263

C42 257 41 255 41 252

C42 248 47 243 51 243

C52 243 57 245 62 247

C67 249 74 252 77 253

L82 255

L78 249

C74 243 74 242 67 240

C55 236 48 231 37 220

C24 207 15 193 9 176

C5 164 7 158 14 156

C19 154 21 155 30 163

C34 167 39 171 42 173

L46 176

L44 169

C43 165 42 161 42 161

C34 157 24 147 18 139

C7 122 1 105 0 81

C0 66 0 66 3 63

C5 61 7 60 10 60

C15 60 17 62 23 72

C26 77 30 83 31 85

L34 88

L34 84

C35 81 35 75 35 70

C37 49 44 10 48 4

C51 -1 58 -1 62 4

C63 7 63 7 61 16

C57 31 54 46 55 47

L55 47

L60 43

C62 40 68 36 72 33

C80 26 84 25 89 30

C93 34 93 38 88 52

C81 73 68 97 56 112

C51 117 51 117 52 123

C52 126 53 129 53 129

L54 130

L61 118

C66 111 70 106 71 105

C75 103 80 104 83 107

C86 109 86 109 86 129

C85 145 85 152 83 160

C81 171 76 185 72 192

C70 197 70 197 73 203

L75 209

L76 208

C76 208 77 207 77 205

C79 196 84 182 87 179

C90 176 96 176 100 180

C104 184 109 201 112 219

C113 229 113 255 112 263

C111 268 111 268 116 273

L121 279

L120 265

C120 248 121 245 127 242

C133 240 137 242 144 254

C156 272 164 289 169 308

C170 314 171 320 172 321

L172 322

L174 318

C177 312 180 311 195 311

C209 311 209 311 213 303

C221 289 228 267 231 251

C232 244 232 244 230 242

C225 238 215 229 210 225

C206 221 206 220 198 219

C169 214 143 195 130 168

C123 153 122 148 121 121

C121 99 121 98 123 95

C124 93 127 92 129 91

C131 90 142 90 153 90

L174 90

L174 89

L174 87

L171 86

C166 84 164 80 164 67

C164 58 164 54 166 51

C169 45 165 45 256 45

C347 45 343 45 346 51

C348 54 348 58 348 67

C348 80 346 84 341 86

L338 87

L338 89

L338 90

L359 90

C370 90 381 90 383 91

C385 92 388 93 389 95

C391 98 391 99 391 121

C390 148 390 152 382 167

C369 195 344 214 314 219

C306 220 306 221 302 225

C297 229 287 238 282 242

C280 244 280 244 282 253

C284 264 283 268 279 270

C277 271 275 271 273 271

C269 269 268 267 265 254

L264 249

L256 249

L248 249

L247 254

C244 271 236 293 231 305

C229 308 228 310 228 310

L228 311

L256 311

L284 311

L284 310

C284 310 283 308 282 305

C278 298 278 294 281 291

C283 289 288 288 291 290

C292 290 295 295 297 301

C303 311 303 311 318 311

C334 312 336 312 339 318

L340 321

L342 313

C347 292 356 271 369 251

C375 242 379 240 385 242

C391 245 392 248 392 265

L391 279

L396 273

C401 268 401 268 400 263

C399 254 399 229 400 219

C403 201 408 184 412 180

C416 176 422 176 425 179

C428 182 433 196 435 205

C435 207 436 208 436 208

L437 209

L439 203

C442 197 442 197 440 192

C436 185 431 171 429 160

C427 152 427 145 426 129

C426 109 426 109 429 107

C432 104 437 103 440 105

C442 105 451 117 455 125

L458 130

L459 129

C459 129 460 126 460 123

C461 117 461 117 455 110

C443 96 431 73 424 52

C419 38 419 34 423 30

C428 25 432 26 441 33

C444 36 450 40 452 43

L457 47

L457 47

C458 46 455 31 451 16

C449 6 449 4 453 1

C457 -1 462 0 464 4

C468 10 475 49 477 70

C477 75 477 81 478 84

L478 88

L481 85

C482 83 486 77 489 72

C495 62 497 60 502 60

C505 60 507 61 509 63

C512 66 512 66 512 81

C511 105 505 122 494 139

C488 147 478 157 470 161

C470 161 469 165 468 169

L466 176

L470 173

C473 171 478 167 482 163

C491 155 493 154 498 156

C505 158 507 164 503 176

C497 193 488 207 475 220

C464 231 457 236 445 240

C438 242 438 243 434 249

L430 255

L435 253

C438 252 445 249 450 247

C455 245 460 243 461 243

C465 243 470 248 471 252

C471 255 470 257 466 263

C456 279 440 293 423 301

C411 307 404 309 392 310

C383 310 383 310 376 316

C373 320 364 326 358 331

L347 339

L348 341

C348 343 349 346 350 349

C352 355 352 358 350 362

C347 368 352 368 256 368

C209 368 169 367 167 367

Z

M334 350

C333 349 331 344 329 340

C328 335 326 330 325 329

L325 327

L256 327

L188 328

L183 339

C181 345 179 351 179 351

L179 352

L257 352

L334 352

L334 350

Z

M149 298

C147 294 144 286 141 281

L137 273

L137 278

C137 280 137 286 138 290

C139 298 139 298 145 303

L152 309

L152 308

C152 308 151 303 149 298

Z

M373 295

C374 294 374 288 375 283

L375 273

L371 281

C367 289 360 306 360 308

L360 309

L366 304

C370 301 373 297 373 295

Z

M104 285

C98 277 98 277 84 273

L71 268

L73 271

C81 279 102 292 109 292

L110 292

L104 285

Z

M415 288

C422 284 435 275 439 271

L441 268

L428 273

C414 277 414 277 408 285

L402 292

L405 292

C406 291 411 289 415 288

Z

M97 234

C96 227 95 219 95 216

L93 210

L93 211

C92 211 91 217 90 223

C88 234 88 234 92 240

C94 244 96 247 97 247

L97 247

L97 234

Z

M420 240

C424 234 424 234 422 223

C421 217 420 211 419 211

L419 210

L417 216

C417 219 416 227 415 234

L415 247

L415 247

C416 247 418 244 420 240

Z

M271 229

C278 226 297 208 303 199

C308 190 314 179 317 170

C321 155 322 148 322 117

L322 88

L278 88

C250 88 233 88 231 87

C226 85 224 79 228 74

C230 72 230 72 281 72

L332 72

L332 67

L332 61

L256 61

L180 61

L180 67

L180 72

L191 72

C203 72 203 72 205 75

C207 78 208 80 206 83

C205 86 200 88 194 88

L190 88

L190 117

C190 148 191 155 195 170

C198 179 204 190 209 199

C214 206 232 224 238 227

C248 234 260 235 271 229

Z

M58 211

C55 202 54 202 47 197

C43 194 38 190 36 189

L32 186

L32 187

C32 189 42 202 47 208

C49 210 54 214 57 216

L61 220

L62 220

L62 219

L58 211

Z

M465 208

C470 203 480 189 480 187

L480 186

L474 190

C471 193 466 196 463 198

C457 202 456 203 450 219

L450 220

L454 217

C457 215 462 211 465 208

Z

M188 193

C183 183 180 177 177 166

C175 156 175 154 174 131

L174 106

L155 106

L137 106

L137 124

C138 141 138 143 140 151

C142 155 145 161 146 164

C154 179 169 192 185 199

L190 201

L191 201

L191 200

L188 193

Z

M335 195

C353 185 365 170 372 151

C374 143 374 141 375 124

L375 106

L357 106

L338 106

L338 131

C337 154 337 156 335 166

C332 177 329 183 324 193

C322 197 321 200 321 200

L321 201

L325 199

C328 199 332 197 335 195

Z

M65 163

C68 154 71 136 70 136

L69 135

L64 146

C58 157 58 157 59 162

C60 166 61 169 61 171

L62 173

L62 173

C63 173 64 168 65 163

Z

M453 164

C455 156 455 157 444 139

L442 135

L442 137

C442 141 445 157 447 165

L449 173

L450 172

C450 172 452 169 453 164

Z

M36 126

C35 117 35 116 30 110

C27 106 23 101 21 98

L17 93

L17 95

C18 96 18 99 19 101

C21 112 27 124 33 132

L36 136

L37 136

C37 135 37 131 36 126

Z

M484 124

C487 118 492 108 493 101

C494 99 494 96 495 95

L495 93

L491 98

C489 101 485 106 483 110

C477 117 477 117 475 132

L475 137

L478 133

C480 131 482 127 484 124

Z

M57 82

C59 78 63 71 65 66

L69 58

L69 57

L68 57

L62 63

C52 72 51 73 51 84

L50 93

L52 91

C52 89 55 85 57 82

Z

M462 82

C461 74 461 74 452 65

L444 57

L443 57

L443 58

L448 69

C451 75 456 83 458 86

L461 92

L462 92

C462 91 462 87 462 82

Z

"/>

</svg>

