<?xml version="1.0" standalone="no"?>

<!DOCTYPE svg PUBLIC "-//W3C//DTD SVG 20010904//EN"

 "http://www.w3.org/TR/2001/REC-SVG-20010904/DTD/svg10.dtd">

<svg version="1.0" xmlns="http://www.w3.org/2000/svg"

 width="600.000000pt" height="460.000000pt" viewBox="0 0 600.000000 460.000000"

 preserveAspectRatio="xMidYMid meet">

<path fill="#000000" stroke="none" d="
M0 313

L0 304

L1 308

C1 311 1 315 1 318

L0 323

L0 313

Z

M599 184

L599 175

L600 179

C600 181 600 185 600 188

L599 193

L599 184

Z

"/>

<path fill="#171717" stroke="none" d="
M245 450

L246 450

L247 450

L247 451

L245 451

L244 451

L245 450

Z

M539 233

C539 232 540 232 541 231

L543 230

L541 231

C540 232 540 233 539 233

L539 233

L539 233

Z

M362 162

L362 160

L363 161

C363 161 363 163 363 163

L362 165

L362 162

Z

M395 93

C396 93 398 93 399 93

L401 94

L397 94

L394 94

L395 93

Z

"/>

<path fill="#2c2d2d" stroke="none" d="
M342 329

L341 328

L342 329

C343 330 344 330 344 331

L344 331

L344 331

C343 331 343 330 342 329

Z

M107 319

L108 319

L109 319

L109 320

L107 320

L106 320

L107 319

Z

M156 274

L157 274

L158 274

L158 275

L156 275

L155 275

L156 274

Z

M539 255

C539 254 541 253 541 253

L541 253

L540 255

C539 256 537 257 537 257

L537 257

L539 255

Z

M74 236

C76 234 78 232 78 232

L78 232

L75 236

C73 237 71 239 71 239

L71 239

L74 236

Z

M255 105

C256 105 258 105 259 105

L261 106

L257 106

L254 106

L255 105

Z

M389 93

C390 93 392 93 393 93

L395 94

L391 94

L387 94

L389 93

Z

M400 81

L401 81

L402 81

L402 82

L400 82

L399 82

L400 81

Z

M411 81

C411 81 413 81 413 81

L415 82

L412 82

L410 82

L411 81

Z

"/>

<path fill="#c00000" stroke="none" d="
"/>

<path fill="#ff0000" stroke="none" d="
M141 384

C133 382 127 380 126 380

L126 379

L127 379

C128 378 139 374 152 369

C166 364 177 360 178 360

C180 360 188 364 188 366

C188 366 157 388 156 388

C156 388 149 386 141 384

Z

M80 330

C78 325 77 321 77 320

C77 320 95 320 117 319

L157 319

L157 323

L157 327

L157 327

C156 327 94 337 86 338

L83 339

L80 330

Z

M419 299

C425 293 425 293 440 290

C446 288 459 285 468 283

C478 282 486 280 486 280

L487 281

L476 291

C464 302 468 301 428 303

L414 303

L419 299

Z

M168 275

C161 275 142 274 126 274

L96 274

L100 266

C106 255 105 256 113 258

C128 261 188 270 194 270

L196 270

L192 273

C188 276 189 276 168 275

Z

M450 247

C450 244 450 244 470 234

C484 227 494 221 507 212

L526 200

L526 201

C526 201 525 207 524 215

C522 228 522 229 519 230

C511 233 453 251 451 251

L450 251

L450 247

Z

M243 235

C238 233 228 229 221 225

C207 218 176 199 177 197

C177 197 181 195 187 193

C197 189 197 189 206 198

C216 208 229 219 243 229

C248 233 253 237 253 237

L253 238

L252 238

C252 238 247 237 243 235

Z

M433 206

L430 205

L430 204

C430 204 437 196 446 186

C454 176 464 164 468 160

C471 155 474 151 475 151

C475 151 480 153 486 155

L496 159

L482 172

C468 185 440 207 438 207

C437 207 435 206 433 206

Z

M360 203

C361 198 362 167 362 153

L362 137

L373 137

L384 137

L384 138

C384 142 369 201 368 204

C367 204 366 204 363 205

L359 205

L360 203

Z

"/>

<path fill="#23c923" stroke="none" d="
M286 377

C286 372 286 368 286 367

L287 366

L294 364

C302 362 302 362 312 371

C317 376 321 380 321 380

L321 381

L304 383

C295 385 287 386 286 386

L285 386

L286 377

Z

"/>

<path fill="#898989" stroke="none" d="
M111 364

C107 362 97 353 97 352

C97 351 109 344 111 344

L111 344

L111 345

C111 347 115 351 118 351

C119 351 125 349 131 346

C142 340 146 339 152 342

C155 343 166 353 166 355

L166 356

L161 356

C157 357 155 357 152 355

C145 352 140 352 132 358

C125 363 119 366 117 366

C116 366 114 365 111 364

Z

M441 276

C441 275 456 261 459 260

C463 257 465 258 472 261

C476 264 477 264 480 263

C483 262 492 253 495 248

C496 247 499 245 506 243

C511 242 515 241 516 241

L516 242

L510 250

C493 273 482 280 474 272

C469 267 466 265 464 265

C463 265 459 268 456 271

C450 276 449 277 445 277

L441 277

L441 276

Z

M174 256

C170 254 169 251 171 243

C171 239 172 235 172 233

L172 230

L170 229

C161 228 150 237 148 247

L147 250

L143 250

C141 249 136 248 132 247

L125 246

L130 240

C139 231 149 222 157 218

C163 215 165 215 171 215

C179 215 185 217 187 222

C189 225 188 226 184 235

C179 246 179 246 189 246

C193 245 202 244 208 243

C220 240 220 240 225 242

L230 244

L226 246

C201 257 182 260 174 256

Z

M411 193

C399 191 395 189 395 184

C395 182 397 179 404 173

C409 168 413 164 413 163

L413 162

L410 161

C409 160 404 160 400 161

L392 161

L394 154

L397 147

L400 146

C404 146 425 149 432 151

C440 153 440 155 430 162

C423 166 420 169 420 171

C420 173 425 177 430 180

L434 182

L428 189

C421 196 421 196 411 193

Z

"/>

<path fill="#9f9f9f" stroke="none" d="
M348 383

L348 382

L350 382

L352 382

L352 382

L352 383

L350 383

L348 384

L348 383

Z

"/>

<path fill="#00ffff" stroke="none" d="
"/>

<path fill="#b1b1b1" stroke="none" d="
"/>

<path fill="#b9b9b9" stroke="none" d="
M1 326

L1 324

L2 325

C2 325 2 327 2 327

L1 329

L1 326

Z

M1 300

L1 297

L2 298

C2 299 2 301 2 301

L1 303

L1 300

Z

M267 270

C267 269 267 266 268 264

L268 259

L269 259

L270 259

L269 264

C269 266 268 269 268 271

L267 273

L267 270

Z

M598 196

L598 194

L599 195

C599 195 599 197 599 197

L598 199

L598 196

Z

M598 171

L598 170

L599 171

L599 172

L599 173

L598 173

L598 171

Z

"/>

<path fill="#c7c7c7" stroke="none" d="
"/>

<path fill="#d0d0d0" stroke="none" d="
M342 384

L342 383

L344 383

L345 383

L345 384

L345 385

L344 385

L342 385

L342 384

Z

M296 303

L296 302

L297 302

L299 302

L298 303

C298 304 297 304 297 304

L296 304

L296 303

Z

"/>

<path fill="#acffff" stroke="none" d="
"/>

<path fill="#eaeaea" stroke="none" d="
M102 375

L101 375

L101 373

L101 372

L103 373

L104 375

L104 375

C104 376 103 376 102 375

Z

M395 362

L395 361

L397 361

L398 360

L398 362

L398 363

L397 363

L395 363

L395 362

Z

M299 303

L299 301

L300 301

L300 302

L299 303

L298 305

L299 303

Z

M523 247

C523 246 524 246 524 246

L525 246

L525 247

C524 248 523 248 523 248

L522 248

L523 247

Z

M591 246

C591 245 591 245 592 245

L592 245

L592 246

L592 247

L591 247

L590 247

L591 246

Z

"/>

<path fill="#ffffff" stroke="none" d="
M182 450

C156 448 123 443 98 437

L85 434

L85 433

L85 432

L131 432

C177 431 197 430 235 426

C350 413 426 386 504 328

C529 308 560 281 580 258

C585 252 590 247 590 247

L591 247

L591 248

C591 250 580 273 574 284

C547 332 508 369 456 395

C398 425 323 445 252 450

C236 451 198 451 182 450

Z

M121 420

C79 415 50 403 29 381

C14 367 2 342 2 327

L2 322

L1 322

L1 323

L1 313

L1 303

L1 304

L2 304

L2 296

C3 277 18 249 39 225

C60 202 89 180 130 156

C145 148 184 128 200 121

C210 116 210 116 221 119

C227 121 232 123 232 123

L233 124

L225 127

C210 132 173 148 152 159

C118 176 97 189 78 205

C41 237 24 278 30 321

C32 334 34 340 40 350

C54 378 86 395 136 399

C175 402 243 398 319 387

C331 385 340 384 341 384

L341 385

L341 386

C339 387 285 401 259 406

C239 411 205 416 187 419

C174 420 129 421 121 420

Z

M91 368

C47 339 31 305 48 271

C57 251 84 224 117 200

C152 176 203 150 248 135

C255 133 261 130 261 130

C262 130 261 127 261 125

L260 120

L256 120

C249 120 241 118 234 115

C225 110 222 105 225 97

L226 94

L227 94

C228 94 229 95 230 96

C239 108 270 108 292 97

C304 91 311 83 312 72

C313 62 310 56 302 52

C296 49 282 50 273 53

L271 54

L273 58

C274 61 277 65 279 67

L282 72

L282 72

C281 73 253 82 252 82

C252 82 253 80 253 77

C253 75 254 70 255 67

L256 60

L254 60

C254 60 249 62 244 64

C237 67 235 68 231 67

L227 67

L227 66

C227 65 241 56 249 52

C256 49 256 49 256 40

L256 32

L250 30

C239 27 237 23 244 17

C250 11 263 6 272 6

C279 6 282 9 282 15

C282 19 281 20 277 24

C272 29 268 36 268 40

L268 43

L270 43

C276 40 287 38 295 38

C318 38 337 52 337 70

C337 79 327 93 313 102

C306 106 306 106 306 113

L306 119

L309 119

C338 113 358 112 389 112

C417 112 434 113 455 117

C517 129 552 151 561 185

C562 191 563 208 561 211

C560 213 526 245 524 246

L523 246

L526 240

C535 217 536 192 528 176

C518 151 487 135 436 127

C423 125 418 125 389 125

C369 125 353 125 347 126

C324 129 310 131 309 133

C308 135 315 152 321 164

C327 176 337 192 348 206

C354 214 354 214 361 212

C371 210 391 208 400 208

C422 208 435 214 440 227

C441 229 441 234 441 239

C441 246 441 247 438 254

C434 262 425 273 420 277

L417 279

L417 277

C422 265 425 247 424 238

C423 232 419 227 414 225

C408 222 391 222 377 225

C371 227 367 228 366 229

C366 229 371 235 377 242

C388 255 388 255 386 261

C384 270 380 278 373 284

C361 296 343 301 311 303

L299 304

L300 302

C300 302 302 301 304 300

C326 293 340 286 352 278

C360 274 373 261 373 260

C373 259 367 254 361 248

C346 236 326 216 319 205

C308 190 298 166 295 147

L294 139

L293 139

C292 139 289 140 285 142

C278 145 278 145 278 171

C277 185 276 203 276 212

C274 229 271 251 270 255

L270 257

L269 257

L268 257

L268 214

C267 176 265 146 264 144

C262 143 231 156 209 167

C137 203 82 257 72 298

C67 322 76 347 96 367

C99 370 101 373 101 373

L100 374

L91 368

Z

M224 362

C171 356 152 325 181 294

C193 281 216 265 246 250

C254 246 260 243 260 243

L261 243

L261 248

C261 254 261 254 251 259

C220 277 194 298 188 310

C184 319 186 328 193 334

C204 345 225 350 253 350

C277 350 297 347 326 341

C340 337 340 337 350 340

L359 343

L359 344

L359 345

L355 346

C338 350 302 357 280 360

C261 362 235 363 224 362

Z

M398 361

C398 360 405 355 414 349

C439 332 489 297 497 291

C539 261 569 225 576 199

C581 178 570 157 543 137

C501 105 443 90 371 94

C359 95 347 95 343 96

C339 97 334 97 333 97

L330 97

L334 92

C336 90 339 87 341 87

C344 86 369 83 388 82

C440 80 478 87 522 106

C549 118 578 138 589 151

C594 157 598 166 598 171

L598 175

L599 175

L600 174

L599 188

C598 205 596 212 588 228

C573 257 545 285 501 315

C477 331 463 338 447 344

C416 356 399 362 398 362

L398 362

L398 361

Z

M356 337

C349 335 346 332 342 328

C338 324 336 318 338 315

C340 312 346 309 353 308

L359 308

L354 312

C349 318 349 320 352 323

C358 329 371 328 379 322

C385 317 385 314 381 309

L378 305

L378 304

L379 304

L383 305

C391 309 398 317 397 323

C394 333 370 341 356 337

Z

M251 336

C230 333 224 331 213 326

C207 323 205 321 205 317

L205 316

L218 320

C241 325 249 326 270 326

C286 326 292 326 302 324

C313 322 322 320 328 318

L330 318

L330 324

L330 330

L325 331

C309 334 291 336 273 336

C262 337 252 337 251 336

Z

"/>

</svg>

