<?xml version="1.0" standalone="no"?>

<!DOCTYPE svg PUBLIC "-//W3C//DTD SVG 20010904//EN"

 "http://www.w3.org/TR/2001/REC-SVG-20010904/DTD/svg10.dtd">

<svg version="1.0" xmlns="http://www.w3.org/2000/svg"

 width="600.000000pt" height="460.000000pt" viewBox="0 0 600.000000 460.000000"

 preserveAspectRatio="xMidYMid meet">

<path fill="#000000" stroke="none" d="
M180 450

C152 448 119 442 94 436

L79 432

L126 432

C216 431 279 423 345 406

C408 389 466 359 521 314

C544 295 577 263 589 247

L592 244

L592 245

C592 248 583 267 578 279

C567 299 550 322 534 339

C527 345 510 361 501 367

C450 407 361 438 273 449

C256 450 197 451 180 450

Z

M116 420

C57 413 15 382 3 336

C-9 289 17 236 76 191

C104 170 150 144 196 123

C210 116 210 116 221 119

L233 123

L233 123

L233 124

L218 129

C188 141 147 161 126 173

C112 181 90 196 80 204

C44 234 26 273 30 314

C31 328 33 336 38 346

C50 373 75 389 116 396

C154 403 222 400 308 388

C326 386 348 383 353 381

L355 381

L355 381

C353 383 302 397 275 403

C237 412 203 417 173 420

C160 421 127 421 116 420

Z

M141 384

C133 382 126 380 125 380

L125 379

L151 369

C178 359 178 359 183 362

C186 364 189 365 189 366

C189 366 156 388 156 388

C156 388 149 386 141 384

Z

M286 377

C286 372 286 368 286 367

L287 366

L294 364

C302 362 302 362 312 371

C317 376 321 380 321 380

L321 381

L304 383

C295 385 287 386 286 386

L285 386

L286 377

Z

M98 373

C55 347 35 315 42 286

C54 237 142 172 247 135

L262 130

L261 129

C261 128 261 126 261 124

L260 120

L255 120

C252 120 247 119 244 118

C227 114 221 107 225 96

L227 93

L231 97

C233 99 237 102 241 103

C246 105 248 105 260 105

C276 104 285 102 296 95

C304 91 306 89 309 81

C312 76 312 74 312 68

C311 57 306 51 294 50

C289 50 274 52 272 54

L271 54

L273 58

C274 61 277 65 279 67

L282 72

L282 72

C281 73 253 82 253 82

C252 82 253 77 254 71

L256 61

L255 60

C254 60 250 62 245 64

C237 68 235 68 231 67

L226 67

L226 66

C226 65 240 57 249 52

C256 48 256 48 256 40

L256 32

L251 31

C245 29 242 27 240 24

L239 22

L242 19

C244 16 249 13 254 11

C262 7 263 7 270 7

C278 7 278 7 280 9

C281 10 282 13 282 15

C283 18 282 19 278 23

C273 29 268 37 268 41

L268 43

L268 43

C269 43 271 42 275 41

C283 38 301 37 309 39

C332 46 343 63 334 80

C331 87 322 96 313 102

C306 106 306 106 306 113

L306 119

L309 119

C320 116 348 113 364 112

C443 107 520 127 547 159

C558 173 564 191 562 206

C561 212 561 212 528 243

L521 251

L524 244

C531 228 535 207 533 193

C531 178 526 168 516 159

C499 141 463 129 418 125

C403 124 373 124 358 125

C338 127 311 131 309 132

C308 133 313 147 318 158

C327 176 351 213 355 213

C356 213 362 212 369 211

C384 208 405 207 415 209

C433 212 443 224 442 241

C441 250 435 261 426 272

L418 280

L418 279

C417 279 418 276 419 273

C424 258 425 241 422 234

C420 229 417 226 412 224

C405 222 385 223 370 227

L366 228

L366 229

C366 229 370 234 376 241

C389 257 388 255 386 261

C386 265 384 270 382 273

C371 293 351 301 304 303

L294 304

L294 304

C294 303 301 301 310 298

C329 291 347 283 357 275

C365 269 373 261 373 259

C373 259 369 255 364 251

C353 243 333 223 325 213

C311 196 302 177 296 154

C295 149 294 144 294 142

L294 139

L293 139

C293 139 289 140 285 142

C278 145 278 145 278 171

C277 185 276 204 275 213

C274 229 268 273 268 274

L268 274

L267 224

C267 187 267 171 266 160

C265 152 264 145 264 144

C263 143 234 155 217 163

C152 194 98 240 79 280

C70 299 69 316 75 333

C79 346 86 356 98 368

L108 378

L107 378

C107 378 103 376 98 373

Z

M111 364

C109 363 105 360 102 357

L96 351

L103 348

L110 344

L111 345

C112 348 115 351 118 351

C119 351 125 349 131 346

C142 340 145 339 152 341

C155 343 166 353 166 355

L166 356

L161 357

C158 357 156 357 152 355

C145 352 141 352 135 356

C132 358 128 361 125 362

C120 366 115 367 111 364

Z

M392 364

C392 364 402 357 414 349

C435 334 465 314 485 300

C508 284 523 271 540 254

C557 237 567 222 573 207

C576 200 576 197 576 189

C576 181 576 178 574 174

C561 140 506 107 447 98

C418 93 364 93 335 97

L330 98

L330 97

C330 96 341 86 342 86

C343 86 349 85 356 85

C401 79 443 81 477 90

C514 99 551 118 577 139

C587 148 591 152 595 159

C599 168 600 175 600 187

C597 231 560 277 493 320

C468 336 461 339 431 350

C415 356 400 362 398 363

C395 364 393 364 392 365

L391 365

L392 364

Z

M221 362

C195 358 177 348 170 335

C168 331 168 329 168 322

C168 310 170 305 183 291

C198 277 217 264 247 249

C254 246 260 243 260 243

L261 243

L261 248

C261 254 261 254 252 259

C220 277 194 298 188 310

C180 326 192 339 220 347

C229 349 231 349 254 349

C274 349 280 349 292 347

C306 345 336 339 338 337

C339 337 344 338 350 340

L361 344

L361 344

L361 345

L350 347

C298 360 248 365 221 362

Z

M80 330

C78 325 77 321 77 320

C77 320 96 320 117 320

L157 320

L157 323

C157 325 157 326 157 327

C156 327 86 339 84 339

L83 339

L80 330

Z

M354 337

C348 335 342 330 339 325

C336 320 336 317 339 314

C342 310 353 307 359 308

L360 308

L357 310

C355 311 353 314 352 315

C349 319 351 322 357 325

C364 328 373 327 380 321

C385 316 384 311 378 306

L376 304

L376 304

C376 303 379 304 381 305

C389 307 397 315 397 321

C397 325 392 331 387 333

C378 338 363 339 354 337

Z

M245 335

C233 333 224 331 215 327

C207 324 206 323 205 320

C205 318 204 316 204 316

C205 316 209 317 214 319

C219 320 229 322 236 324

C263 329 297 327 328 318

L330 318

L330 324

L330 330

L325 331

C297 337 262 339 245 335

Z

M419 298

C425 293 425 293 456 286

C474 282 488 279 488 280

L488 280

L483 284

C465 302 466 301 456 301

C451 302 439 302 430 303

L413 303

L419 298

Z

M441 276

C441 275 455 261 459 260

C463 257 466 258 471 260

C477 265 480 264 487 257

C490 254 494 250 495 249

C496 247 499 245 507 243

C512 241 517 240 517 240

L517 241

L511 249

C503 260 492 271 488 273

C481 276 478 276 472 270

C468 267 466 265 465 265

C463 265 458 268 454 272

C450 276 449 277 445 277

L441 277

L441 276

Z

M165 275

C157 275 139 274 124 274

L96 274

L96 273

C96 273 105 257 105 256

L106 256

L124 260

C135 261 154 265 169 267

C183 268 195 270 195 270

L195 271

L192 273

C188 276 188 276 165 275

Z

M174 256

C170 254 169 251 171 243

C171 239 172 235 172 233

L172 230

L170 229

C167 228 159 231 155 235

C150 239 148 242 147 247

L147 251

L144 250

C142 250 137 248 133 247

L125 246

L130 240

C141 227 158 216 168 214

C178 213 186 217 188 224

C188 227 188 228 184 235

L180 243

L181 245

C183 247 192 246 207 243

C219 240 219 240 225 242

L231 244

L225 246

C221 248 213 251 207 253

C192 258 179 259 174 256

Z

M450 248

C450 244 450 244 469 235

C483 228 492 222 506 213

C516 206 525 201 525 200

L527 200

L524 214

C523 221 522 228 522 229

C521 229 519 230 516 231

C499 237 475 244 463 248

L450 252

L450 248

Z

M245 236

C229 230 208 219 183 203

L175 197

L176 197

C177 196 182 194 187 193

L197 189

L201 193

C207 200 226 217 241 228

C249 234 255 238 255 239

L255 239

L255 239

C255 239 250 237 245 236

Z

M433 206

L430 205

L430 204

C430 204 437 196 446 186

C454 176 464 165 467 160

C471 155 474 151 475 151

C476 151 495 158 496 159

L496 159

L490 164

C487 167 481 173 477 177

C467 186 440 207 438 207

C437 207 435 206 433 206

Z

M359 202

C361 195 362 167 362 153

L362 138

L373 137

L385 137

L385 139

C384 140 382 149 380 159

C377 168 374 183 371 190

C367 205 367 205 361 205

L359 205

L359 202

Z

M411 194

C399 191 395 189 395 184

C395 182 397 179 404 173

C409 168 413 163 413 163

C412 161 407 160 399 161

L392 162

L392 161

C392 161 393 157 395 153

L397 145

L406 146

C418 147 435 151 437 153

L439 154

L438 156

C438 156 435 159 431 161

C423 166 420 169 420 171

C420 173 426 178 430 180

C432 181 434 182 434 182

L434 182

L428 189

C421 196 421 196 411 194

Z

"/>

<path fill="#171717" stroke="none" d="
M181 450

C176 450 169 449 167 449

C165 448 160 448 157 447

C154 447 150 447 149 446

C148 446 144 446 142 446

C140 445 135 444 132 444

C128 443 124 443 123 442

C121 442 116 441 113 440

C109 440 105 439 104 438

C102 438 96 437 90 435

L79 432

L126 432

C172 431 196 430 230 426

C245 425 275 421 285 419

C288 418 293 418 296 417

C317 413 352 404 371 398

C430 379 489 344 538 300

C554 285 583 256 590 247

L592 244

L591 247

C590 252 582 271 575 283

C541 342 492 383 418 412

C390 423 354 434 331 439

C330 439 328 439 327 439

C326 440 324 440 323 440

C319 441 316 442 312 443

C308 443 286 447 281 447

C279 448 274 448 271 449

C267 449 263 449 261 450

C255 451 191 451 181 450

Z

M120 420

C110 419 95 416 85 413

C42 401 13 373 3 336

C1 329 1 325 1 313

C1 297 2 288 7 275

C18 247 43 217 78 190

C104 170 151 143 196 123

C210 116 210 116 221 119

L233 123

L233 123

L233 124

L218 129

C176 146 133 167 105 185

C51 220 25 264 30 314

C31 329 33 336 39 348

C48 367 63 380 88 389

C122 402 180 403 267 393

C300 390 347 383 354 381

L356 381

L355 381

C353 383 302 397 275 403

C237 412 203 417 173 420

C162 421 128 421 120 420

Z

M141 384

L127 380

L127 379

C127 379 138 374 152 369

C178 359 178 359 183 362

C186 363 188 365 188 366

C188 366 157 388 156 388

C156 388 149 386 141 384

Z

M286 377

C286 372 286 368 286 367

L287 366

L294 364

C302 362 302 362 312 371

C317 376 321 380 321 380

L321 381

L304 383

C295 385 287 386 286 386

L285 386

L286 377

Z

M98 373

C74 358 55 340 47 324

C35 298 40 275 65 246

C90 217 133 187 186 160

C209 149 217 146 244 136

L262 130

L261 129

C261 128 261 126 261 124

L260 120

L252 120

C244 119 234 116 230 113

C224 109 223 104 225 97

L226 94

L227 94

C227 94 229 96 231 97

C233 99 238 102 241 103

C246 105 248 105 260 105

C276 104 285 102 296 95

C307 88 313 79 312 67

C311 53 299 47 280 51

C276 52 272 53 272 54

L271 54

L273 58

C274 61 277 65 279 67

L282 72

L282 72

C281 73 253 82 252 82

C252 82 253 77 254 71

L256 61

L255 60

C254 60 250 62 245 64

C237 67 235 68 231 67

L227 67

L227 66

C227 65 238 58 249 52

C256 48 256 48 256 40

L256 32

L251 31

C245 29 242 27 240 24

L239 22

L242 19

C244 16 249 13 254 11

C262 7 263 7 270 7

C278 7 278 7 280 9

C281 10 282 13 282 15

C283 18 282 19 278 23

C272 29 268 36 268 40

L268 43

L268 43

C269 43 271 42 275 41

C283 38 301 37 309 39

C332 46 343 63 334 80

C331 87 322 96 313 102

C306 106 306 106 306 113

L306 119

L309 119

C381 106 450 110 504 131

C540 145 561 169 562 197

C563 211 564 208 542 230

L523 249

L522 249

L522 248

L524 243

C530 230 535 206 533 195

C530 171 520 157 496 145

C458 125 397 119 335 127

C322 129 310 131 309 132

C308 133 313 147 318 158

C324 170 333 186 345 201

C355 215 352 214 372 211

C385 208 406 207 415 209

C424 211 431 214 436 220

C447 234 443 253 426 272

L418 280

L418 279

C417 279 418 276 419 273

C424 258 425 241 422 233

C418 225 412 223 396 223

C385 224 368 226 367 228

L366 229

L376 241

C389 257 388 255 386 261

C386 265 384 270 382 273

C371 293 351 301 304 303

L294 304

L294 304

L294 303

L302 301

C325 293 345 284 357 275

C365 269 373 261 373 259

C373 259 369 255 364 251

C353 243 333 223 325 213

C311 196 302 177 296 154

C295 149 294 144 294 142

L294 139

L293 139

C293 139 289 140 285 142

C278 145 278 145 278 171

C277 185 276 204 275 213

C274 229 268 273 268 274

L267 274

L268 239

C268 198 266 147 264 144

C263 143 232 156 215 164

C141 200 84 253 73 297

C69 314 72 333 83 350

C85 354 91 362 98 368

L108 378

L107 378

C107 378 103 376 98 373

Z

M111 364

C107 362 97 353 97 352

C97 351 100 349 104 347

L110 344

L111 345

C112 348 115 351 118 351

C119 351 125 349 131 346

C142 340 145 339 152 341

C155 343 166 353 166 355

L166 356

L161 357

C158 357 156 357 152 355

C145 352 141 352 135 356

C132 358 128 361 125 362

C120 366 115 366 111 364

Z

M392 364

C392 364 401 357 412 350

C507 285 515 279 539 255

C557 237 567 222 573 207

C576 200 576 197 576 189

C576 181 576 178 574 174

C562 144 517 114 466 101

C443 96 424 94 391 94

C369 94 361 94 336 97

L330 97

L334 93

C336 90 339 87 340 87

C342 86 367 83 388 82

C409 81 433 82 451 85

C496 91 545 113 577 139

C587 148 591 152 594 158

C598 167 599 170 599 184

C599 195 599 199 597 206

C585 245 551 283 493 320

C468 336 461 339 431 350

C415 356 400 362 398 363

C395 364 393 364 392 365

L391 365

L392 364

Z

M221 362

C195 358 177 348 170 335

C168 331 168 329 168 322

C168 310 170 305 183 291

C198 277 217 264 247 249

C254 246 260 243 260 243

L261 243

L261 248

C261 254 261 254 252 259

C220 277 194 298 188 310

C180 326 192 339 220 347

C229 349 231 349 254 349

C274 349 280 349 292 347

C305 345 334 339 338 338

C339 337 344 338 349 340

C354 342 359 343 360 343

L361 343

L361 344

L361 345

L350 347

C300 359 246 365 221 362

Z

M80 330

C78 325 77 321 77 320

C77 320 96 320 117 320

L157 320

L157 323

C157 325 157 326 157 327

C156 327 86 339 84 339

L83 339

L80 330

Z

M356 337

C346 333 340 329 338 322

C336 317 338 313 343 311

C347 309 359 307 360 308

L360 309

L359 309

C357 309 350 317 350 319

C350 321 353 323 357 325

C362 327 366 327 372 325

C378 323 382 320 383 316

C384 313 384 313 381 309

C380 307 378 306 377 305

L376 305

L376 304

L376 303

L381 304

C389 307 397 315 397 322

C397 325 392 330 387 333

C379 337 362 339 356 337

Z

M245 335

C233 333 225 331 216 327

C207 324 205 322 205 318

L205 316

L207 316

C211 318 227 322 239 324

C251 326 278 327 290 326

C300 324 313 322 322 320

C326 319 329 318 330 318

L330 318

L330 324

L330 330

L325 331

C297 337 262 339 245 335

Z

M418 299

C421 296 424 294 425 293

C426 293 433 291 442 289

C450 287 464 284 472 283

L488 279

L488 280

C488 280 483 285 477 291

C464 302 467 301 431 303

L413 303

L418 299

Z

M441 276

C441 275 455 261 459 260

C463 257 466 258 471 260

C477 265 480 264 487 257

C490 254 494 250 495 249

C496 247 499 245 506 243

L516 240

L516 241

C516 243 505 257 498 265

C490 272 486 275 481 275

C478 275 476 274 472 270

C468 267 466 265 465 265

C463 265 458 268 454 272

C450 276 449 277 445 277

L441 277

L441 276

Z

M164 275

C157 275 139 274 124 274

L96 274

L96 273

C96 273 105 257 105 256

L106 256

L124 260

C135 261 154 265 169 267

C183 268 195 270 195 270

L195 271

L192 273

C189 276 187 276 183 276

C180 276 171 275 164 275

Z

M174 256

C170 254 169 251 171 243

C171 239 172 235 172 233

L172 230

L170 229

C163 227 150 236 148 245

L147 250

L143 250

C141 249 136 248 132 247

L125 246

L130 240

C141 227 158 216 168 214

C178 213 186 217 188 224

C188 227 188 228 184 235

L180 243

L181 245

C183 247 192 246 207 243

C219 240 219 240 225 242

L231 244

L225 246

C221 248 213 251 207 253

C192 258 179 259 174 256

Z

M450 247

C450 244 450 244 470 234

C485 227 494 222 507 212

L526 200

L526 201

C526 204 522 228 521 229

C520 230 501 236 487 241

C485 241 476 244 468 246

C459 249 452 251 451 251

L450 251

L450 247

Z

M245 236

C235 232 219 225 208 218

C196 211 176 198 176 197

L176 197

L187 193

L197 189

L202 194

C209 202 227 217 242 228

C249 234 255 238 255 239

L255 239

L255 239

C255 239 250 237 245 236

Z

M433 206

L430 205

L430 204

C430 204 437 196 446 186

C454 176 464 165 467 160

C471 155 474 151 475 151

C476 151 495 158 496 159

L496 159

L491 164

C488 166 482 172 477 177

C468 186 440 207 438 207

C437 207 435 206 433 206

Z

M360 202

C361 192 362 168 362 154

L362 137

L373 137

L385 137

L383 143

C380 158 375 177 371 190

C367 205 367 205 361 205

L359 205

L360 202

Z

M411 194

C399 191 395 189 395 184

C395 182 397 179 404 173

C409 168 413 163 413 163

C412 161 407 160 399 161

L392 162

L392 161

C392 161 393 157 395 153

L397 145

L406 146

C417 147 435 151 437 152

C439 154 438 157 431 161

C423 166 420 169 420 171

C420 173 426 178 430 180

C432 181 434 182 434 182

L434 182

L428 189

C421 196 421 196 411 194

Z

"/>

<path fill="#2c2d2d" stroke="none" d="
M190 451

C190 450 185 450 179 450

C173 449 167 449 166 449

C165 448 161 448 158 448

C154 447 150 447 149 447

C148 446 145 446 143 446

C140 445 136 445 133 444

C130 443 126 443 124 443

C122 442 118 441 114 441

C110 440 106 439 104 438

C103 438 96 437 90 435

L79 432

L118 432

C139 432 158 432 159 432

C160 431 168 431 177 431

C195 430 210 429 234 426

C352 413 427 385 505 327

C535 304 566 275 587 250

L592 244

L592 247

C589 258 574 287 562 304

C517 369 447 411 342 436

C337 437 331 438 330 439

C329 439 327 439 326 440

C324 440 322 440 317 442

C316 442 314 442 313 442

C310 443 286 447 281 447

C279 448 274 448 271 449

C267 449 262 449 261 450

C257 450 191 451 190 451

Z

M121 420

C82 416 51 403 29 382

C18 371 8 354 3 338

C1 330 1 326 1 313

C1 300 1 296 3 288

C10 263 24 240 47 217

C76 187 121 159 185 128

C212 115 208 116 221 119

C227 121 232 123 232 123

L233 124

L225 127

C216 130 186 143 171 150

C147 161 122 174 104 186

C53 219 27 261 29 308

C31 350 50 376 88 389

C97 392 116 397 129 399

C136 400 193 400 206 399

C227 398 253 395 268 394

C270 393 279 392 289 391

C313 388 348 383 354 381

L356 381

L355 381

C354 382 316 393 298 397

C275 403 251 408 239 410

C230 412 221 413 219 414

C212 416 185 419 173 420

C161 421 129 421 121 420

Z

M145 385

C138 383 132 382 130 381

L126 380

L127 379

C127 379 138 374 151 370

C164 365 175 360 176 360

C178 359 188 364 188 366

C188 366 157 388 156 388

C156 388 151 386 145 385

Z

M286 377

C286 372 286 368 286 367

L287 366

L294 364

C302 362 302 362 312 371

C317 376 321 380 321 380

L321 381

L304 383

C295 385 287 386 286 386

L285 386

L286 377

Z

M103 376

C56 348 35 316 42 286

C51 249 104 202 178 164

C203 152 220 145 248 135

L262 130

L261 129

C261 128 261 126 261 124

L260 120

L256 120

C249 120 241 118 234 115

C225 110 222 105 225 97

L226 94

L227 94

L229 94

L229 96

C230 98 239 103 243 104

C249 106 266 105 275 103

C285 102 298 95 303 90

C310 83 312 79 312 69

C312 62 311 61 309 58

C304 52 301 50 291 51

C286 51 280 51 278 52

C275 53 273 53 272 54

L271 54

L273 58

C274 61 277 65 279 67

L282 72

L282 72

C281 73 253 82 252 82

C252 82 253 80 253 77

C253 75 254 70 255 67

L256 60

L254 60

C254 60 249 62 244 64

C237 68 235 68 231 67

L227 67

L227 66

C227 65 237 58 247 53

C256 48 256 48 256 40

L256 32

L250 30

C239 27 237 23 244 17

C250 11 263 6 272 6

C276 6 278 6 280 8

C281 10 282 12 282 13

C282 14 282 15 283 16

C283 17 281 20 278 24

C272 30 268 36 268 40

L268 43

L268 43

C269 43 271 42 275 41

C279 39 283 39 294 39

C310 38 315 40 325 47

C332 53 336 59 337 68

C337 73 337 75 334 80

C331 87 321 96 313 102

C306 106 306 106 306 113

L306 119

L309 119

C370 107 432 109 481 123

C527 136 553 157 561 185

C562 192 563 208 561 211

C560 212 534 238 523 249

L522 250

L522 248

C523 247 524 244 526 240

C535 218 536 194 529 177

C519 152 488 135 436 127

C422 125 417 125 389 125

C369 125 354 125 347 126

C334 127 313 131 311 132

L309 132

L309 133

C309 136 314 149 318 158

C325 172 339 194 351 210

C354 214 354 214 361 212

C371 210 391 208 400 208

C418 208 429 212 435 219

C440 225 442 229 442 239

C442 246 441 247 437 255

C434 261 431 266 426 271

L418 279

L418 279

C417 279 418 276 419 274

C423 260 425 243 423 235

C420 226 414 223 399 223

C387 223 367 227 366 229

C366 229 371 235 377 242

C388 255 388 255 386 261

C383 275 374 287 361 293

C349 299 333 302 303 303

L294 304

L294 304

C294 303 300 301 307 299

C323 294 343 285 352 279

C360 273 373 261 373 260

C373 259 370 256 365 252

C354 244 325 215 319 205

C316 201 311 193 309 189

C302 175 294 151 294 142

L294 139

L293 139

C292 139 289 140 285 142

C278 145 278 145 278 161

C278 177 277 201 275 219

C274 230 268 273 268 274

L268 274

L268 230

C268 205 267 180 267 173

C266 160 264 145 264 144

C263 144 258 146 251 148

C182 174 118 220 88 265

C76 283 70 299 71 316

C73 337 82 355 103 373

L108 378

L107 378

C107 378 105 377 103 376

Z

M111 364

C107 362 97 353 97 352

C97 351 100 349 104 347

L110 344

L111 345

C112 348 115 351 118 351

C119 351 125 349 131 346

C142 340 145 339 152 341

C155 343 166 353 166 355

L166 356

L161 357

C158 357 156 357 152 355

C145 352 141 352 135 356

C132 358 128 361 125 362

C120 366 115 366 111 364

Z

M392 364

C392 364 398 359 406 354

C499 291 516 279 537 257

C565 228 578 205 577 185

C575 160 544 130 499 112

C477 103 454 98 427 95

C410 93 367 94 349 95

C340 96 333 97 332 97

L330 97

L335 92

C337 89 340 87 341 87

C348 84 401 81 415 82

C434 83 441 83 451 85

C494 91 542 111 574 137

C589 149 594 155 598 166

C600 172 600 195 598 203

C587 242 554 280 498 317

C474 333 461 339 443 346

C432 350 405 360 393 365

L391 365

L392 364

Z

M223 362

C176 356 155 330 174 302

C180 292 197 278 217 266

C225 261 259 243 260 243

L261 243

L261 248

C261 254 261 254 252 259

C220 277 194 298 188 310

C186 316 185 323 188 328

C191 336 202 342 220 347

C229 349 231 349 251 350

C278 350 293 348 326 341

C340 337 340 337 349 340

C354 342 359 343 360 343

L361 343

L361 344

L361 345

L350 347

C300 359 248 365 223 362

Z

M83 339

C83 338 82 334 80 330

C78 325 77 321 77 320

C77 320 96 320 117 320

L157 320

L157 323

C157 325 157 326 157 327

C156 327 141 329 123 333

C105 336 88 338 86 339

L83 339

L83 339

Z

M354 336

C350 335 346 333 344 331

C341 329 337 322 337 318

C337 313 343 310 353 308

C355 308 357 308 358 307

L359 307

L360 308

L360 309

L359 309

C357 309 350 317 350 319

C350 321 354 325 357 326

C366 329 381 324 383 316

C384 312 383 310 379 307

C377 305 376 304 376 304

L376 303

L381 305

C390 308 398 316 397 322

C395 329 387 334 375 337

C366 338 361 338 354 336

Z

M246 336

C233 333 222 330 214 326

C207 323 206 322 205 320

C205 318 205 317 205 316

C205 316 207 317 210 317

C215 319 235 324 246 325

C255 327 285 327 293 326

C295 325 300 324 305 323

C310 323 317 321 322 320

C326 319 329 318 330 318

L330 318

L330 324

L330 330

L325 331

C299 336 262 339 246 336

Z

M419 298

C422 296 425 293 426 293

C426 293 433 291 442 289

C450 287 464 284 472 283

L488 279

L488 280

C488 280 483 285 476 291

C465 301 465 301 459 301

C456 301 453 301 452 301

C451 302 442 302 431 303

L413 303

L419 298

Z

M441 276

C441 275 455 261 459 260

C463 257 466 258 471 260

C477 265 480 264 487 257

C490 254 494 250 495 249

C496 247 499 245 506 243

L516 240

L516 241

C516 243 505 257 498 265

C490 272 486 275 481 275

C478 275 476 274 472 270

C468 267 466 265 465 265

C463 265 458 268 454 272

C450 276 449 277 445 277

L441 277

L441 276

Z

M164 275

C157 275 139 274 124 274

L96 274

L96 273

C96 272 105 257 106 256

C106 256 109 257 113 257

C125 260 154 265 175 268

C186 269 195 270 195 270

L195 271

L192 273

C189 276 187 276 183 276

C180 276 171 275 164 275

Z

M174 256

C170 254 169 251 171 243

C171 239 172 235 172 233

L172 230

L170 229

C163 227 150 236 148 245

L147 250

L143 250

C141 249 136 248 132 247

L125 246

L130 240

C141 227 158 216 168 214

C178 213 186 217 188 224

C188 227 188 228 184 235

L180 243

L181 245

C183 247 192 246 207 243

C219 240 219 240 225 242

L231 244

L225 246

C221 248 213 251 207 253

C192 258 179 259 174 256

Z

M450 247

C450 244 450 244 470 234

C484 227 494 221 507 212

L526 200

L526 202

C526 202 525 209 524 215

C523 222 522 228 522 228

L522 229

L519 230

C516 231 495 238 487 241

C485 241 476 244 468 246

C459 249 452 251 451 251

L450 251

L450 247

Z

M241 235

C231 231 217 224 206 217

C192 209 176 198 176 197

L176 197

L186 193

C197 189 197 189 202 195

C210 203 226 216 240 227

C247 232 253 237 253 237

L254 238

L252 238

C251 238 246 236 241 235

Z

M433 206

L430 205

L430 204

C430 204 437 196 446 186

C454 176 464 165 467 160

C471 155 474 151 475 151

C475 151 480 153 486 155

L496 159

L496 159

C496 159 493 162 490 165

C486 168 480 174 476 177

C467 186 440 207 438 207

C437 207 435 206 433 206

Z

M359 203

C360 202 360 196 361 190

C361 183 361 177 362 177

C362 176 362 167 362 156

L362 137

L373 137

L385 137

L384 141

C383 143 382 149 381 154

C379 161 368 203 368 204

C368 204 365 204 363 205

L359 205

L359 203

Z

M411 194

C399 191 395 189 395 184

C395 182 397 179 404 173

C409 168 413 163 413 163

C412 161 407 160 399 161

L392 162

L392 161

C392 161 393 157 394 153

L397 147

L406 147

C415 147 435 150 437 152

C439 154 438 157 431 161

C423 166 420 169 420 171

C420 173 426 178 430 180

C432 181 434 182 434 182

L434 182

L428 189

C421 196 421 196 411 194

Z

"/>

<path fill="#c00000" stroke="none" d="
M182 450

C155 448 128 444 98 437

L79 433

L127 432

C175 431 198 430 235 426

C351 413 426 386 504 328

C533 306 566 275 587 250

L592 244

L592 246

C590 252 581 273 574 284

C547 332 508 369 456 395

C398 425 323 445 252 450

C236 451 198 451 182 450

Z

M121 420

C79 415 50 403 29 381

C17 370 7 353 3 336

C0 324 0 302 3 290

C13 248 47 209 104 172

C129 157 170 134 200 121

C210 116 210 116 221 119

C227 121 232 123 232 123

L233 124

L225 127

C210 132 173 148 152 159

C91 190 59 216 41 252

C29 277 26 309 34 336

C36 345 43 358 49 364

C81 400 144 408 277 392

C308 389 342 384 353 381

L355 381

L355 381

C353 383 289 400 259 406

C239 411 205 416 187 419

C174 420 129 421 121 420

Z

M141 384

C133 382 127 380 126 380

L126 379

L127 379

C128 378 139 374 152 369

C166 364 177 360 178 360

C180 360 188 364 188 366

C188 366 157 388 156 388

C156 388 149 386 141 384

Z

M286 377

C286 372 286 368 286 367

L287 366

L294 364

C302 362 302 362 312 371

C317 376 321 380 321 380

L321 381

L304 383

C295 385 287 386 286 386

L285 386

L286 377

Z

M97 372

C65 352 48 332 42 310

C37 286 48 262 78 233

C91 220 101 212 117 200

C152 176 203 150 248 135

C255 133 261 130 261 130

C262 130 261 127 261 125

L260 120

L256 120

C249 120 241 118 234 115

C225 110 222 105 225 97

L226 94

L227 94

C228 94 229 95 230 96

C239 108 270 108 292 97

C304 91 311 83 312 72

C313 62 310 56 302 52

C296 49 282 50 273 53

L271 54

L273 58

C274 61 277 65 279 67

L282 72

L282 72

C281 73 253 82 252 82

C252 82 253 80 253 77

C253 75 254 70 255 67

L256 60

L254 60

C254 60 249 62 244 64

C237 67 235 68 231 67

L227 67

L227 66

C227 65 241 56 249 52

C256 49 256 49 256 40

L256 32

L250 30

C239 27 237 23 244 17

C250 11 263 6 272 6

C279 6 282 9 282 15

C282 19 281 20 277 24

C272 29 268 36 268 40

L268 43

L270 43

C276 40 287 38 295 38

C318 38 337 52 337 70

C337 79 327 93 313 102

C306 106 306 106 306 113

L306 119

L309 119

C338 113 358 112 389 112

C439 112 481 119 513 135

C543 149 561 171 562 196

C563 211 564 208 542 230

L523 249

L522 249

L522 248

L524 243

C528 234 532 221 533 210

C537 177 521 154 486 140

C471 134 455 130 433 126

C418 124 362 124 347 126

C324 129 310 131 309 133

C308 135 315 152 321 164

C327 176 337 192 348 206

C354 214 354 214 361 212

C371 210 391 208 400 208

C422 208 435 214 440 227

C441 229 441 234 441 239

C441 246 441 247 438 254

C434 262 425 273 420 277

L417 279

L417 277

C422 265 425 247 424 238

C423 232 419 227 414 225

C408 222 391 222 377 225

C371 227 367 228 366 229

C366 229 371 235 377 242

C388 255 388 255 386 261

C384 270 380 278 373 284

C361 296 344 301 309 303

C301 303 294 304 294 304

L294 303

L301 301

C322 294 340 287 352 278

C360 274 373 261 373 260

C373 259 367 254 361 248

C346 236 326 216 319 205

C308 190 298 166 295 147

L294 139

L293 139

C292 139 289 140 285 142

C278 145 278 145 278 170

C277 184 276 203 275 212

C274 229 268 273 268 274

L268 274

L267 223

C267 184 267 169 266 159

C265 151 264 145 264 144

C262 143 231 156 209 167

C137 203 82 257 72 298

C67 324 78 352 103 374

L108 378

L107 378

C107 378 102 375 97 372

Z

M111 364

C107 362 97 353 97 352

C97 351 100 349 104 347

L110 344

L111 345

C112 348 115 351 118 351

C119 351 125 349 131 346

C142 340 145 339 152 341

C155 343 166 353 166 355

L166 356

L161 357

C158 357 156 357 152 355

C145 352 141 352 135 356

C132 358 128 361 125 362

C120 366 115 366 111 364

Z

M393 363

C394 362 404 355 415 348

C449 325 489 297 497 291

C538 261 569 225 576 199

C581 178 570 157 543 137

C501 105 443 90 371 94

C359 95 347 95 343 96

C339 97 334 97 333 97

L330 97

L334 92

C336 90 339 87 341 87

C344 86 369 83 388 82

C417 81 446 83 469 88

C508 97 549 116 577 140

C589 150 594 156 598 166

C600 173 600 196 597 205

C586 243 556 278 501 315

C477 331 463 338 447 344

C440 347 426 352 415 356

C404 360 394 364 393 364

L391 365

L393 363

Z

M224 362

C171 356 152 325 181 294

C193 281 216 265 246 250

C254 246 260 243 260 243

L261 243

L261 248

C261 254 261 254 251 259

C220 277 194 298 188 310

C184 319 186 328 193 334

C204 345 225 350 253 350

C277 350 297 347 326 341

C340 337 340 337 351 340

L361 344

L361 344

L361 345

L358 345

C357 346 349 347 342 349

C297 359 248 365 224 362

Z

M80 330

C78 325 77 321 77 320

C77 320 95 320 117 319

L157 319

L157 323

L157 327

L157 327

C156 327 94 337 86 338

L83 339

L80 330

Z

M356 337

C346 334 339 327 337 321

C336 314 340 311 352 309

L359 307

L359 307

C359 308 357 310 355 312

C352 315 350 318 350 319

C350 321 353 324 357 326

C366 329 380 324 383 317

C385 313 384 311 379 307

C378 305 376 304 376 304

L376 303

L381 305

C391 309 398 317 397 323

C394 333 370 341 356 337

Z

M251 336

C230 333 224 331 213 326

C207 323 205 321 205 317

L205 316

L218 320

C241 325 249 326 270 326

C286 326 292 326 302 324

C313 322 322 320 328 318

L330 318

L330 324

L330 330

L325 331

C309 334 291 336 273 336

C262 337 252 337 251 336

Z

M419 298

C426 293 426 292 440 290

C447 288 461 285 471 283

C480 281 488 279 488 280

L488 280

L484 284

C464 302 466 301 454 301

C448 302 436 302 428 303

L413 303

L419 298

Z

M441 276

C441 275 455 261 459 260

C463 257 466 258 471 260

C477 264 480 264 486 259

C488 256 492 252 494 250

C496 247 497 246 506 243

C511 242 515 241 516 241

L516 242

L510 250

C502 260 492 271 488 273

C481 276 478 276 472 270

C468 267 466 265 465 265

C463 265 458 268 454 272

C450 276 449 277 445 277

L441 277

L441 276

Z

M168 275

C161 275 142 274 126 274

L96 274

L100 266

C106 255 105 256 113 258

C128 261 188 270 194 270

L196 270

L192 273

C188 276 189 276 168 275

Z

M174 256

C170 254 169 251 171 243

C171 239 172 235 172 233

L172 230

L170 229

C163 227 150 236 148 245

L147 250

L143 250

C141 249 136 248 132 247

L125 246

L130 240

C141 227 158 216 168 214

C178 213 186 217 188 224

C188 227 188 228 184 235

L180 243

L181 245

C183 247 192 246 207 243

C219 240 219 240 225 242

L231 244

L225 246

C221 248 213 251 207 253

C192 258 179 259 174 256

Z

M450 247

C450 244 450 244 470 234

C484 227 494 221 507 212

L526 200

L526 201

C526 201 525 207 524 215

C522 228 522 229 519 230

C511 233 453 251 451 251

L450 251

L450 247

Z

M243 235

C238 233 228 229 221 225

C207 218 176 199 177 197

C177 197 181 195 187 193

C197 189 197 189 205 197

C216 208 225 216 240 227

C247 232 253 237 253 237

L254 238

L253 238

C252 238 247 237 243 235

Z

M433 206

L430 205

L430 204

C430 204 437 196 446 186

C454 176 464 164 468 160

C471 155 474 151 475 151

C475 151 480 153 486 155

L496 159

L482 172

C468 185 440 207 438 207

C437 207 435 206 433 206

Z

M360 203

C361 198 362 167 362 153

L362 137

L373 137

L384 137

L384 138

C384 142 369 201 368 204

C367 204 366 204 363 205

L359 205

L360 203

Z

M411 194

C399 191 395 189 395 184

C395 182 397 179 404 173

C409 168 413 163 413 163

C412 161 408 160 400 161

L392 161

L393 159

C393 158 394 154 395 152

L397 147

L406 147

C415 147 435 150 437 152

C439 154 438 157 431 161

C423 166 420 169 420 171

C420 173 426 178 430 180

C432 181 434 182 434 182

L434 182

L428 189

C421 196 421 196 411 194

Z

"/>

<path fill="#ff0000" stroke="none" d="
M182 450

C155 448 128 444 98 437

L79 433

L127 432

C175 431 198 430 235 426

C351 413 426 386 504 328

C533 306 566 275 587 250

L592 244

L592 246

C590 252 581 273 574 284

C547 332 508 369 456 395

C398 425 323 445 252 450

C236 451 198 451 182 450

Z

M121 420

C79 415 50 403 29 381

C17 370 7 353 3 336

C0 324 0 302 3 290

C13 248 47 209 104 172

C129 157 170 134 200 121

C210 116 210 116 221 119

C227 121 232 123 232 123

L233 124

L225 127

C210 132 173 148 152 159

C91 190 59 216 41 252

C29 277 26 309 34 336

C36 345 43 358 49 364

C81 400 144 408 277 392

C308 389 342 384 353 381

L355 381

L355 381

C353 383 289 400 259 406

C239 411 205 416 187 419

C174 420 129 421 121 420

Z

M141 384

C133 382 127 380 126 380

L126 379

L127 379

C128 378 139 374 152 369

C166 364 177 360 178 360

C180 360 188 364 188 366

C188 366 157 388 156 388

C156 388 149 386 141 384

Z

M286 377

C286 372 286 368 286 367

L287 366

L294 364

C302 362 302 362 312 371

C317 376 321 380 321 380

L321 381

L304 383

C295 385 287 386 286 386

L285 386

L286 377

Z

M97 372

C65 352 48 332 42 310

C37 286 48 262 78 233

C91 220 101 212 117 200

C152 176 203 150 248 135

C255 133 261 130 261 130

C262 130 261 127 261 125

L260 120

L256 120

C249 120 241 118 234 115

C225 110 222 105 225 97

L226 94

L227 94

C228 94 229 95 230 96

C239 108 270 108 292 97

C304 91 311 83 312 72

C313 62 310 56 302 52

C296 49 282 50 273 53

L271 54

L273 58

C274 61 277 65 279 67

L282 72

L282 72

C281 73 253 82 252 82

C252 82 253 80 253 77

C253 75 254 70 255 67

L256 60

L254 60

C254 60 249 62 244 64

C237 67 235 68 231 67

L227 67

L227 66

C227 65 241 56 249 52

C256 49 256 49 256 40

L256 32

L250 30

C239 27 237 23 244 17

C250 11 263 6 272 6

C279 6 282 9 282 15

C282 19 281 20 277 24

C272 29 268 36 268 40

L268 43

L270 43

C276 40 287 38 295 38

C318 38 337 52 337 70

C337 79 327 93 313 102

C306 106 306 106 306 113

L306 119

L309 119

C338 113 358 112 389 112

C439 112 481 119 513 135

C543 149 561 171 562 196

C563 211 564 208 542 230

L523 249

L522 249

L522 248

L524 243

C528 234 532 221 533 210

C537 177 521 154 486 140

C471 134 455 130 433 126

C418 124 362 124 347 126

C324 129 310 131 309 133

C308 135 315 152 321 164

C327 176 337 192 348 206

C354 214 354 214 361 212

C371 210 391 208 400 208

C422 208 435 214 440 227

C441 229 441 234 441 239

C441 246 441 247 438 254

C434 262 425 273 420 277

L417 279

L417 277

C422 265 425 247 424 238

C423 232 419 227 414 225

C408 222 391 222 377 225

C371 227 367 228 366 229

C366 229 371 235 377 242

C388 255 388 255 386 261

C384 270 380 278 373 284

C361 296 344 301 309 303

C301 303 294 304 294 304

L294 303

L301 301

C322 294 340 287 352 278

C360 274 373 261 373 260

C373 259 367 254 361 248

C346 236 326 216 319 205

C308 190 298 166 295 147

L294 139

L293 139

C292 139 289 140 285 142

C278 145 278 145 278 170

C277 184 276 203 275 212

C274 229 268 273 268 274

L268 274

L267 223

C267 184 267 169 266 159

C265 151 264 145 264 144

C262 143 231 156 209 167

C137 203 82 257 72 298

C67 324 78 352 103 374

L108 378

L107 378

C107 378 102 375 97 372

Z

M111 364

C107 362 97 353 97 352

C97 351 100 349 104 347

L110 344

L111 345

C112 348 115 351 118 351

C119 351 125 349 131 346

C142 340 145 339 152 341

C155 343 166 353 166 355

L166 356

L161 357

C158 357 156 357 152 355

C145 352 141 352 135 356

C132 358 128 361 125 362

C120 366 115 366 111 364

Z

M393 363

C394 362 404 355 415 348

C449 325 489 297 497 291

C538 261 569 225 576 199

C581 178 570 157 543 137

C501 105 443 90 371 94

C359 95 347 95 343 96

C339 97 334 97 333 97

L330 97

L334 92

C336 90 339 87 341 87

C344 86 369 83 388 82

C417 81 446 83 469 88

C508 97 549 116 577 140

C589 150 594 156 598 166

C600 173 600 196 597 205

C586 243 556 278 501 315

C477 331 463 338 447 344

C440 347 426 352 415 356

C404 360 394 364 393 364

L391 365

L393 363

Z

M224 362

C171 356 152 325 181 294

C193 281 216 265 246 250

C254 246 260 243 260 243

L261 243

L261 248

C261 254 261 254 251 259

C220 277 194 298 188 310

C184 319 186 328 193 334

C204 345 225 350 253 350

C277 350 297 347 326 341

C340 337 340 337 351 340

L361 344

L361 344

L361 345

L358 345

C357 346 349 347 342 349

C297 359 248 365 224 362

Z

M80 330

C78 325 77 321 77 320

C77 320 95 320 117 319

L157 319

L157 323

L157 327

L157 327

C156 327 94 337 86 338

L83 339

L80 330

Z

M356 337

C346 334 339 327 337 321

C336 314 340 311 352 309

L359 307

L359 307

C359 308 357 310 355 312

C352 315 350 318 350 319

C350 321 353 324 357 326

C366 329 380 324 383 317

C385 313 384 311 379 307

C378 305 376 304 376 304

L376 303

L381 305

C391 309 398 317 397 323

C394 333 370 341 356 337

Z

M251 336

C230 333 224 331 213 326

C207 323 205 321 205 317

L205 316

L218 320

C241 325 249 326 270 326

C286 326 292 326 302 324

C313 322 322 320 328 318

L330 318

L330 324

L330 330

L325 331

C309 334 291 336 273 336

C262 337 252 337 251 336

Z

M419 299

C425 293 425 293 440 290

C446 288 459 285 468 283

C478 282 486 280 486 280

L487 281

L476 291

C464 302 468 301 428 303

L414 303

L419 299

Z

M441 276

C441 275 455 261 459 260

C463 257 466 258 471 260

C477 264 480 264 486 259

C488 256 492 252 494 250

C496 247 497 246 506 243

C511 242 515 241 516 241

L516 242

L510 250

C502 260 492 271 488 273

C481 276 478 276 472 270

C468 267 466 265 465 265

C463 265 458 268 454 272

C450 276 449 277 445 277

L441 277

L441 276

Z

M168 275

C161 275 142 274 126 274

L96 274

L100 266

C106 255 105 256 113 258

C128 261 188 270 194 270

L196 270

L192 273

C188 276 189 276 168 275

Z

M174 256

C170 254 169 251 171 243

C171 239 172 235 172 233

L172 230

L170 229

C163 227 150 236 148 245

L147 250

L143 250

C141 249 136 248 132 247

L125 246

L130 240

C141 227 158 216 168 214

C178 213 186 217 188 224

C188 227 188 228 184 235

L180 243

L181 245

C183 247 192 246 207 243

C219 240 219 240 225 242

L231 244

L225 246

C221 248 213 251 207 253

C192 258 179 259 174 256

Z

M450 247

C450 244 450 244 470 234

C484 227 494 221 507 212

L526 200

L526 201

C526 201 525 207 524 215

C522 228 522 229 519 230

C511 233 453 251 451 251

L450 251

L450 247

Z

M243 235

C238 233 228 229 221 225

C207 218 176 199 177 197

C177 197 181 195 187 193

C197 189 197 189 206 198

C216 208 229 219 243 229

C248 233 253 237 253 237

L253 238

L252 238

C252 238 247 237 243 235

Z

M433 206

L430 205

L430 204

C430 204 437 196 446 186

C454 176 464 164 468 160

C471 155 474 151 475 151

C475 151 480 153 486 155

L496 159

L482 172

C468 185 440 207 438 207

C437 207 435 206 433 206

Z

M360 203

C361 198 362 167 362 153

L362 137

L373 137

L384 137

L384 138

C384 142 369 201 368 204

C367 204 366 204 363 205

L359 205

L360 203

Z

M411 194

C399 191 395 189 395 184

C395 182 397 179 404 173

C409 168 413 163 413 163

C412 161 408 160 400 161

L392 161

L393 159

C393 158 394 154 395 152

L397 147

L406 147

C415 147 435 150 437 152

C439 154 438 157 431 161

C423 166 420 169 420 171

C420 173 426 178 430 180

C432 181 434 182 434 182

L434 182

L428 189

C421 196 421 196 411 194

Z

"/>

<path fill="#23c923" stroke="none" d="
M182 450

C155 448 128 444 98 437

L79 433

L127 432

C175 431 198 430 235 426

C351 413 426 386 504 328

C533 306 566 275 587 250

L592 244

L592 246

C590 252 581 273 574 284

C547 332 508 369 456 395

C398 425 323 445 252 450

C236 451 198 451 182 450

Z

M121 420

C79 415 50 403 29 381

C17 370 7 353 3 336

C0 324 0 302 3 290

C13 248 47 209 104 172

C129 157 170 134 200 121

C210 116 210 116 221 119

C227 121 232 123 232 123

L233 124

L225 127

C210 132 173 148 152 159

C91 190 59 216 41 252

C29 277 26 309 34 336

C36 345 43 358 49 364

C81 400 144 408 277 392

C308 389 342 384 353 381

L355 381

L355 381

C353 383 289 400 259 406

C239 411 205 416 187 419

C174 420 129 421 121 420

Z

M286 377

C286 372 286 368 286 367

L287 366

L294 364

C302 362 302 362 312 371

C317 376 321 380 321 380

L321 381

L304 383

C295 385 287 386 286 386

L285 386

L286 377

Z

M97 372

C65 352 48 332 42 310

C37 286 48 262 78 233

C91 220 101 212 117 200

C152 176 203 150 248 135

C255 133 261 130 261 130

C262 130 261 127 261 125

L260 120

L256 120

C249 120 241 118 234 115

C225 110 222 105 225 97

L226 94

L227 94

C228 94 229 95 230 96

C239 108 270 108 292 97

C304 91 311 83 312 72

C313 62 310 56 302 52

C296 49 282 50 273 53

L271 54

L273 58

C274 61 277 65 279 67

L282 72

L282 72

C281 73 253 82 252 82

C252 82 253 80 253 77

C253 75 254 70 255 67

L256 60

L254 60

C254 60 249 62 244 64

C237 67 235 68 231 67

L227 67

L227 66

C227 65 241 56 249 52

C256 49 256 49 256 40

L256 32

L250 30

C239 27 237 23 244 17

C250 11 263 6 272 6

C279 6 282 9 282 15

C282 19 281 20 277 24

C272 29 268 36 268 40

L268 43

L270 43

C276 40 287 38 295 38

C318 38 337 52 337 70

C337 79 327 93 313 102

C306 106 306 106 306 113

L306 119

L309 119

C338 113 358 112 389 112

C439 112 481 119 513 135

C543 149 561 171 562 196

C563 211 564 208 542 230

L523 249

L522 249

L522 248

L524 243

C528 234 532 221 533 210

C537 177 521 154 486 140

C471 134 455 130 433 126

C418 124 362 124 347 126

C324 129 310 131 309 133

C308 135 315 152 321 164

C327 176 337 192 348 206

C354 214 354 214 361 212

C371 210 391 208 400 208

C422 208 435 214 440 227

C441 229 441 234 441 239

C441 246 441 247 438 254

C434 262 425 273 420 277

L417 279

L417 277

C422 265 425 247 424 238

C423 232 419 227 414 225

C408 222 391 222 377 225

C371 227 367 228 366 229

C366 229 371 235 377 242

C388 255 388 255 386 261

C384 270 380 278 373 284

C361 296 344 301 309 303

C301 303 294 304 294 304

L294 303

L301 301

C322 294 340 287 352 278

C360 274 373 261 373 260

C373 259 367 254 361 248

C346 236 326 216 319 205

C308 190 298 166 295 147

L294 139

L293 139

C292 139 289 140 285 142

C278 145 278 145 278 170

C277 184 276 203 275 212

C274 229 268 273 268 274

L268 274

L267 223

C267 184 267 169 266 159

C265 151 264 145 264 144

C262 143 231 156 209 167

C137 203 82 257 72 298

C67 324 78 352 103 374

L108 378

L107 378

C107 378 102 375 97 372

Z

M111 364

C107 362 97 353 97 352

C97 351 100 349 104 347

L110 344

L111 345

C112 348 115 351 118 351

C119 351 125 349 131 346

C142 340 145 339 152 341

C155 343 166 353 166 355

L166 356

L161 357

C158 357 156 357 152 355

C145 352 141 352 135 356

C132 358 128 361 125 362

C120 366 115 366 111 364

Z

M393 363

C394 362 404 355 415 348

C449 325 489 297 497 291

C538 261 569 225 576 199

C581 178 570 157 543 137

C501 105 443 90 371 94

C359 95 347 95 343 96

C339 97 334 97 333 97

L330 97

L334 92

C336 90 339 87 341 87

C344 86 369 83 388 82

C417 81 446 83 469 88

C508 97 549 116 577 140

C589 150 594 156 598 166

C600 173 600 196 597 205

C586 243 556 278 501 315

C477 331 463 338 447 344

C440 347 426 352 415 356

C404 360 394 364 393 364

L391 365

L393 363

Z

M224 362

C171 356 152 325 181 294

C193 281 216 265 246 250

C254 246 260 243 260 243

L261 243

L261 248

C261 254 261 254 251 259

C220 277 194 298 188 310

C184 319 186 328 193 334

C204 345 225 350 253 350

C277 350 297 347 326 341

C340 337 340 337 351 340

L361 344

L361 344

L361 345

L358 345

C357 346 349 347 342 349

C297 359 248 365 224 362

Z

M356 337

C346 334 339 327 337 321

C336 314 340 311 352 309

L359 307

L359 307

C359 308 357 310 355 312

C352 315 350 318 350 319

C350 321 353 324 357 326

C366 329 380 324 383 317

C385 313 384 311 379 307

C378 305 376 304 376 304

L376 303

L381 305

C391 309 398 317 397 323

C394 333 370 341 356 337

Z

M251 336

C230 333 224 331 213 326

C207 323 205 321 205 317

L205 316

L218 320

C241 325 249 326 270 326

C286 326 292 326 302 324

C313 322 322 320 328 318

L330 318

L330 324

L330 330

L325 331

C309 334 291 336 273 336

C262 337 252 337 251 336

Z

M441 276

C441 275 455 261 459 260

C463 257 466 258 471 260

C477 264 480 264 486 259

C488 256 492 252 494 250

C496 247 497 246 506 243

C511 242 515 241 516 241

L516 242

L510 250

C502 260 492 271 488 273

C481 276 478 276 472 270

C468 267 466 265 465 265

C463 265 458 268 454 272

C450 276 449 277 445 277

L441 277

L441 276

Z

M174 256

C170 254 169 251 171 243

C171 239 172 235 172 233

L172 230

L170 229

C163 227 150 236 148 245

L147 250

L143 250

C141 249 136 248 132 247

L125 246

L130 240

C141 227 158 216 168 214

C178 213 186 217 188 224

C188 227 188 228 184 235

L180 243

L181 245

C183 247 192 246 207 243

C219 240 219 240 225 242

L231 244

L225 246

C221 248 213 251 207 253

C192 258 179 259 174 256

Z

M411 194

C399 191 395 189 395 184

C395 182 397 179 404 173

C409 168 413 163 413 163

C412 161 408 160 400 161

L392 161

L393 159

C393 158 394 154 395 152

L397 147

L406 147

C415 147 435 150 437 152

C439 154 438 157 431 161

C423 166 420 169 420 171

C420 173 426 178 430 180

C432 181 434 182 434 182

L434 182

L428 189

C421 196 421 196 411 194

Z

"/>

<path fill="#898989" stroke="none" d="
M182 450

C155 448 128 444 98 437

L79 433

L127 432

C175 431 198 430 235 426

C351 413 426 386 504 328

C533 306 566 275 587 250

L592 244

L592 246

C590 252 581 273 574 284

C547 332 508 369 456 395

C398 425 323 445 252 450

C236 451 198 451 182 450

Z

M121 420

C79 415 50 403 29 381

C17 370 7 353 3 336

C0 324 0 302 3 290

C13 248 47 209 104 172

C129 157 170 134 200 121

C210 116 210 116 221 119

C227 121 232 123 232 123

L233 124

L225 127

C210 132 173 148 152 159

C91 190 59 216 41 252

C29 277 26 309 34 336

C36 345 43 358 49 364

C81 400 144 408 277 392

C308 389 342 384 353 381

L355 381

L355 381

C353 383 289 400 259 406

C239 411 205 416 187 419

C174 420 129 421 121 420

Z

M97 372

C65 352 48 332 42 310

C37 286 48 262 78 233

C91 220 101 212 117 200

C152 176 203 150 248 135

C255 133 261 130 261 130

C262 130 261 127 261 125

L260 120

L256 120

C249 120 241 118 234 115

C225 110 222 105 225 97

L226 94

L227 94

C228 94 229 95 230 96

C239 108 270 108 292 97

C304 91 311 83 312 72

C313 62 310 56 302 52

C296 49 282 50 273 53

L271 54

L273 58

C274 61 277 65 279 67

L282 72

L282 72

C281 73 253 82 252 82

C252 82 253 80 253 77

C253 75 254 70 255 67

L256 60

L254 60

C254 60 249 62 244 64

C237 67 235 68 231 67

L227 67

L227 66

C227 65 241 56 249 52

C256 49 256 49 256 40

L256 32

L250 30

C239 27 237 23 244 17

C250 11 263 6 272 6

C279 6 282 9 282 15

C282 19 281 20 277 24

C272 29 268 36 268 40

L268 43

L270 43

C276 40 287 38 295 38

C318 38 337 52 337 70

C337 79 327 93 313 102

C306 106 306 106 306 113

L306 119

L309 119

C338 113 358 112 389 112

C439 112 481 119 513 135

C543 149 561 171 562 196

C563 211 564 208 542 230

L523 249

L522 249

L522 248

L524 243

C528 234 532 221 533 210

C537 177 521 154 486 140

C471 134 455 130 433 126

C418 124 362 124 347 126

C324 129 310 131 309 133

C308 135 315 152 321 164

C327 176 337 192 348 206

C354 214 354 214 361 212

C371 210 391 208 400 208

C422 208 435 214 440 227

C441 229 441 234 441 239

C441 246 441 247 438 254

C434 262 425 273 420 277

L417 279

L417 277

C422 265 425 247 424 238

C423 232 419 227 414 225

C408 222 391 222 377 225

C371 227 367 228 366 229

C366 229 371 235 377 242

C388 255 388 255 386 261

C384 270 380 278 373 284

C361 296 344 301 309 303

C301 303 294 304 294 304

L294 303

L301 301

C322 294 340 287 352 278

C360 274 373 261 373 260

C373 259 367 254 361 248

C346 236 326 216 319 205

C308 190 298 166 295 147

L294 139

L293 139

C292 139 289 140 285 142

C278 145 278 145 278 170

C277 184 276 203 275 212

C274 229 268 273 268 274

L268 274

L267 223

C267 184 267 169 266 159

C265 151 264 145 264 144

C262 143 231 156 209 167

C137 203 82 257 72 298

C67 324 78 352 103 374

L108 378

L107 378

C107 378 102 375 97 372

Z

M111 364

C107 362 97 353 97 352

C97 351 100 349 104 347

L110 344

L111 345

C112 348 115 351 118 351

C119 351 125 349 131 346

C142 340 145 339 152 341

C155 343 166 353 166 355

L166 356

L161 357

C158 357 156 357 152 355

C145 352 141 352 135 356

C132 358 128 361 125 362

C120 366 115 366 111 364

Z

M393 363

C394 362 404 355 415 348

C449 325 489 297 497 291

C538 261 569 225 576 199

C581 178 570 157 543 137

C501 105 443 90 371 94

C359 95 347 95 343 96

C339 97 334 97 333 97

L330 97

L334 92

C336 90 339 87 341 87

C344 86 369 83 388 82

C417 81 446 83 469 88

C508 97 549 116 577 140

C589 150 594 156 598 166

C600 173 600 196 597 205

C586 243 556 278 501 315

C477 331 463 338 447 344

C440 347 426 352 415 356

C404 360 394 364 393 364

L391 365

L393 363

Z

M224 362

C171 356 152 325 181 294

C193 281 216 265 246 250

C254 246 260 243 260 243

L261 243

L261 248

C261 254 261 254 251 259

C220 277 194 298 188 310

C184 319 186 328 193 334

C204 345 225 350 253 350

C277 350 297 347 326 341

C340 337 340 337 351 340

L361 344

L361 344

L361 345

L358 345

C357 346 349 347 342 349

C297 359 248 365 224 362

Z

M356 337

C346 334 339 327 337 321

C336 314 340 311 352 309

L359 307

L359 307

C359 308 357 310 355 312

C352 315 350 318 350 319

C350 321 353 324 357 326

C366 329 380 324 383 317

C385 313 384 311 379 307

C378 305 376 304 376 304

L376 303

L381 305

C391 309 398 317 397 323

C394 333 370 341 356 337

Z

M251 336

C230 333 224 331 213 326

C207 323 205 321 205 317

L205 316

L218 320

C241 325 249 326 270 326

C286 326 292 326 302 324

C313 322 322 320 328 318

L330 318

L330 324

L330 330

L325 331

C309 334 291 336 273 336

C262 337 252 337 251 336

Z

M441 276

C441 275 455 261 459 260

C463 257 466 258 471 260

C477 264 480 264 486 259

C488 256 492 252 494 250

C496 247 497 246 506 243

C511 242 515 241 516 241

L516 242

L510 250

C502 260 492 271 488 273

C481 276 478 276 472 270

C468 267 466 265 465 265

C463 265 458 268 454 272

C450 276 449 277 445 277

L441 277

L441 276

Z

M174 256

C170 254 169 251 171 243

C171 239 172 235 172 233

L172 230

L170 229

C163 227 150 236 148 245

L147 250

L143 250

C141 249 136 248 132 247

L125 246

L130 240

C141 227 158 216 168 214

C178 213 186 217 188 224

C188 227 188 228 184 235

L180 243

L181 245

C183 247 192 246 207 243

C219 240 219 240 225 242

L231 244

L225 246

C221 248 213 251 207 253

C192 258 179 259 174 256

Z

M411 194

C399 191 395 189 395 184

C395 182 397 179 404 173

C409 168 413 163 413 163

C412 161 408 160 400 161

L392 161

L393 159

C393 158 394 154 395 152

L397 147

L406 147

C415 147 435 150 437 152

C439 154 438 157 431 161

C423 166 420 169 420 171

C420 173 426 178 430 180

C432 181 434 182 434 182

L434 182

L428 189

C421 196 421 196 411 194

Z

"/>

<path fill="#9f9f9f" stroke="none" d="
M182 450

C155 448 128 444 98 437

L79 433

L127 432

C175 431 198 430 235 426

C351 413 426 386 504 328

C533 306 566 275 587 250

L592 244

L592 246

C590 252 581 273 574 284

C547 332 508 369 456 395

C398 425 323 445 252 450

C236 451 198 451 182 450

Z

M121 420

C79 415 50 403 29 381

C17 370 7 353 3 336

C0 324 0 302 3 290

C13 248 47 209 104 172

C129 157 170 134 200 121

C210 116 210 116 221 119

C227 121 232 123 232 123

L233 124

L225 127

C210 132 173 148 152 159

C91 190 59 216 41 252

C29 277 26 309 34 336

C36 345 43 358 49 364

C81 400 144 408 277 392

C308 389 342 384 353 381

L355 381

L355 381

C353 383 289 400 259 406

C239 411 205 416 187 419

C174 420 129 421 121 420

Z

M97 372

C66 352 48 332 42 310

C37 286 48 262 78 233

C91 220 101 212 117 200

C152 176 203 150 248 135

C255 133 261 130 261 130

C262 130 261 127 261 125

L260 120

L256 120

C249 120 241 118 234 115

C225 110 222 105 225 97

L226 94

L227 94

C228 94 229 95 230 96

C239 108 270 108 292 97

C304 91 311 83 312 72

C313 62 310 56 302 52

C296 49 282 50 273 53

L271 54

L273 58

C274 61 277 65 279 67

L282 72

L282 72

C281 73 253 82 252 82

C252 82 253 80 253 77

C253 75 254 70 255 67

L256 60

L254 60

C254 60 249 62 244 64

C237 67 235 68 231 67

L227 67

L227 66

C227 65 241 56 249 52

C256 49 256 49 256 40

L256 32

L250 30

C239 27 237 23 244 17

C250 11 263 6 272 6

C279 6 282 9 282 15

C282 19 281 20 277 24

C272 29 268 36 268 40

L268 43

L270 43

C276 40 287 38 295 38

C318 38 337 52 337 70

C337 79 327 93 313 102

C306 106 306 106 306 113

L306 119

L309 119

C338 113 358 112 389 112

C439 112 481 119 513 135

C543 149 561 171 562 196

C563 211 564 208 542 230

L523 249

L522 249

L522 248

L524 243

C528 234 532 221 533 210

C537 177 521 154 486 140

C471 134 455 130 433 126

C418 124 362 124 347 126

C324 129 310 131 309 133

C308 135 315 152 321 164

C327 176 337 192 348 206

C354 214 354 214 361 212

C371 210 391 208 400 208

C422 208 435 214 440 227

C441 229 441 234 441 239

C441 246 441 247 438 254

C434 262 425 273 420 277

L417 279

L417 277

C422 265 425 247 424 238

C423 232 419 227 414 225

C408 222 391 222 377 225

C371 227 367 228 366 229

C366 229 371 235 377 242

C388 255 388 255 386 261

C384 270 380 278 373 284

C361 296 344 301 309 303

C301 303 294 304 294 304

L294 303

L301 301

C322 294 340 287 352 278

C360 274 373 261 373 260

C373 259 367 254 361 248

C346 236 326 216 319 205

C308 190 298 166 295 147

L294 139

L293 139

C292 139 289 140 285 142

C278 145 278 145 278 170

C277 184 276 203 275 212

C274 230 268 272 268 272

L268 273

L267 223

C267 184 267 169 266 159

C265 151 264 145 264 144

C262 143 231 156 209 167

C137 203 82 257 72 298

C67 324 78 351 103 373

L107 377

L107 377

L107 378

L97 372

Z

M393 363

C394 362 404 355 415 348

C449 325 489 297 497 291

C538 261 569 225 576 199

C581 178 570 157 543 137

C501 105 443 90 371 94

C359 95 347 95 343 96

C339 97 334 97 333 97

L330 97

L334 92

C336 90 339 87 341 87

C344 86 369 83 388 82

C417 81 446 83 469 88

C508 97 549 116 577 140

C589 150 594 156 598 166

C600 173 600 196 597 205

C586 243 556 278 501 315

C477 331 463 338 447 344

C440 347 426 352 415 356

C404 360 394 364 393 364

L391 365

L393 363

Z

M224 362

C171 356 152 325 181 294

C193 281 216 265 246 250

C254 246 260 243 260 243

L261 243

L261 248

C261 254 261 254 251 259

C220 277 194 298 188 310

C184 319 186 328 193 334

C204 345 225 350 253 350

C277 350 297 347 326 341

C340 337 340 337 351 340

L361 344

L361 344

L361 345

L358 345

C357 346 349 347 342 349

C297 359 248 365 224 362

Z

M356 337

C346 334 339 327 337 321

C336 314 340 311 352 309

L359 307

L359 307

C359 308 357 310 355 312

C352 315 350 318 350 319

C350 321 353 324 357 326

C366 329 380 324 383 317

C385 313 384 311 379 307

C378 305 376 304 376 304

L376 303

L381 305

C391 309 398 317 397 323

C394 333 370 341 356 337

Z

M251 336

C230 333 224 331 213 326

C207 323 205 321 205 317

L205 316

L218 320

C241 325 249 326 270 326

C286 326 292 326 302 324

C313 322 322 320 328 318

L330 318

L330 324

L330 330

L325 331

C309 334 291 336 273 336

C262 337 252 337 251 336

Z

M477 263

L478 263

L479 263

L479 264

L477 264

L476 264

L477 263

Z

"/>

<path fill="#00ffff" stroke="none" d="
M182 450

C165 449 139 445 122 442

C106 439 82 433 81 433

L81 432

L129 432

C177 431 197 430 235 426

C350 413 426 386 504 328

C533 306 566 275 587 250

L592 244

L592 246

C590 252 581 273 574 284

C547 332 508 369 456 395

C398 425 323 445 252 450

C236 451 198 451 182 450

Z

M121 420

C79 415 50 403 29 381

C17 370 7 353 3 336

C0 325 0 304 3 292

C11 250 46 209 104 172

C129 157 170 134 200 121

C210 116 210 116 221 119

C227 121 232 123 232 123

L233 124

L225 127

C210 132 173 148 152 159

C91 190 59 216 41 252

C29 277 26 309 34 336

C36 345 43 358 49 364

C81 400 144 408 277 392

C300 390 338 384 344 383

L348 382

L348 383

L348 384

L346 384

C298 399 231 413 187 419

C174 420 129 421 121 420

Z

M96 371

C77 359 61 345 53 332

C31 300 39 271 78 233

C91 220 101 212 117 200

C152 176 203 150 248 135

C255 133 261 130 261 130

C262 130 261 127 261 125

L260 120

L256 120

C249 120 241 118 234 115

C225 110 222 105 225 97

L226 94

L227 94

C228 94 229 95 230 96

C239 108 270 108 292 97

C304 91 311 83 312 72

C313 62 310 56 302 52

C296 49 282 50 273 53

L271 54

L273 58

C274 61 277 65 279 67

L282 72

L282 72

C281 73 253 82 252 82

C252 82 253 80 253 77

C253 75 254 70 255 67

L256 60

L254 60

C254 60 249 62 244 64

C237 67 235 68 231 67

L227 67

L227 66

C227 65 241 56 249 52

C256 49 256 49 256 40

L256 32

L250 30

C239 27 237 23 244 17

C250 11 263 6 272 6

C279 6 282 9 282 15

C282 19 281 20 277 24

C272 29 268 36 268 40

L268 43

L270 43

C276 40 287 38 295 38

C318 38 337 52 337 70

C337 79 327 93 313 102

C306 106 306 106 306 113

L306 119

L309 119

C338 113 358 112 389 112

C439 112 481 119 513 135

C543 149 561 171 562 196

C563 211 564 208 542 230

L523 249

L522 249

L522 248

L524 243

C528 234 532 221 533 210

C537 177 521 154 486 140

C471 134 455 130 433 126

C418 124 362 124 347 126

C324 129 310 131 309 133

C308 135 315 152 321 164

C327 176 337 192 348 206

C354 214 354 214 361 212

C371 210 391 208 400 208

C422 208 435 214 440 227

C441 229 441 234 441 239

C441 246 441 247 438 254

C434 262 425 273 420 277

L417 279

L417 277

C422 265 425 247 424 238

C423 232 419 227 414 225

C408 222 391 222 377 225

C371 227 367 228 366 229

C366 229 371 235 377 242

C388 255 388 255 386 261

C384 270 380 278 373 284

C361 296 344 301 309 303

C301 303 294 304 294 304

L294 303

L301 301

C322 294 340 287 352 278

C360 274 373 261 373 260

C373 259 367 254 361 248

C346 236 326 216 319 205

C308 190 298 166 295 147

L294 139

L293 139

C292 139 289 140 285 142

C278 145 278 145 278 171

C277 185 276 203 276 212

C273 233 269 268 268 270

L268 272

L267 222

C267 184 267 169 266 159

C265 151 264 145 264 144

C262 143 231 156 209 167

C137 203 82 257 72 298

C70 309 71 323 74 333

C79 347 86 357 99 369

L106 377

L106 377

C106 377 101 374 96 371

Z

M392 364

C392 364 393 363 394 362

C400 359 485 300 497 291

C538 261 569 225 576 199

C581 178 570 157 543 137

C501 105 443 90 371 94

C359 95 347 95 343 96

C339 97 334 97 333 97

L330 97

L334 92

C336 90 339 87 341 87

C344 86 369 83 388 82

C417 81 446 83 469 88

C508 97 549 116 577 140

C590 150 595 157 598 168

C600 175 599 195 597 204

C587 242 556 278 501 315

C476 331 463 338 445 345

C437 348 422 354 411 358

L392 365

L392 364

Z

M224 362

C171 356 152 325 181 294

C193 281 216 265 246 250

C254 246 260 243 260 243

L261 243

L261 248

C261 254 261 254 251 259

C220 277 194 298 188 310

C184 319 186 328 193 334

C204 345 225 350 253 350

C277 350 297 347 326 341

C340 337 340 337 351 340

L361 344

L361 344

L361 345

L358 345

C357 346 349 347 342 349

C297 359 248 365 224 362

Z

M356 337

C346 334 339 327 337 321

C336 314 340 311 352 309

L359 307

L359 307

C359 308 357 310 355 312

C352 315 350 318 350 319

C350 321 353 324 357 326

C366 329 380 324 383 317

C385 313 384 311 379 307

C378 305 376 304 376 304

L376 303

L381 305

C391 309 398 317 397 323

C394 333 370 341 356 337

Z

M251 336

C230 333 224 331 213 326

C207 323 205 321 205 317

L205 316

L218 320

C241 325 249 326 270 326

C286 326 292 326 302 324

C313 322 322 320 328 318

L330 318

L330 324

L330 330

L325 331

C309 334 291 336 273 336

C262 337 252 337 251 336

Z

"/>

<path fill="#b6b6b6" stroke="none" d="
M182 450

C165 449 139 445 122 442

C106 439 82 433 81 433

L81 432

L129 432

C177 431 197 430 235 426

C350 413 426 386 504 328

C533 306 566 275 587 250

L592 244

L592 246

C590 252 581 273 574 284

C547 332 508 369 456 395

C398 425 323 445 252 450

C236 451 198 451 182 450

Z

M121 420

C79 415 50 403 29 381

C17 370 7 353 3 336

C0 325 0 304 3 292

C11 250 46 209 104 172

C129 157 170 134 200 121

C210 116 210 116 221 119

C227 121 232 123 232 123

L233 124

L225 127

C210 132 173 148 152 159

C91 190 59 216 41 252

C29 277 26 309 34 336

C36 345 43 358 49 364

C81 400 144 408 277 392

C300 390 338 384 344 383

L348 382

L348 383

L348 384

L346 384

C298 399 231 413 187 419

C174 420 129 421 121 420

Z

M96 371

C77 359 61 345 53 332

C31 300 39 271 78 233

C91 220 101 212 117 200

C152 176 203 150 248 135

C255 133 261 130 261 130

C262 130 261 127 261 125

L260 120

L256 120

C249 120 241 118 234 115

C225 110 222 105 225 97

L226 94

L227 94

C228 94 229 95 230 96

C239 108 270 108 292 97

C304 91 311 83 312 72

C313 62 310 56 302 52

C296 49 282 50 273 53

L271 54

L273 58

C274 61 277 65 279 67

L282 72

L282 72

C281 73 253 82 252 82

C252 82 253 80 253 77

C253 75 254 70 255 67

L256 60

L254 60

C254 60 249 62 244 64

C237 67 235 68 231 67

L227 67

L227 66

C227 65 241 56 249 52

C256 49 256 49 256 40

L256 32

L250 30

C239 27 237 23 244 17

C250 11 263 6 272 6

C279 6 282 9 282 15

C282 19 281 20 277 24

C272 29 268 36 268 40

L268 43

L270 43

C276 40 287 38 295 38

C318 38 337 52 337 70

C337 79 327 93 313 102

C306 106 306 106 306 113

L306 119

L309 119

C338 113 358 112 389 112

C439 112 481 119 513 135

C543 149 561 171 562 196

C563 211 564 208 542 230

L523 249

L522 249

L522 248

L524 243

C528 234 532 221 533 210

C537 177 521 154 486 140

C471 134 455 130 433 126

C418 124 362 124 347 126

C324 129 310 131 309 133

C308 135 315 152 321 164

C327 176 337 192 348 206

C354 214 354 214 361 212

C371 210 391 208 400 208

C422 208 435 214 440 227

C441 229 441 234 441 239

C441 246 441 247 438 254

C434 262 425 273 420 277

L417 279

L417 277

C422 265 425 247 424 238

C423 232 419 227 414 225

C408 222 391 222 377 225

C371 227 367 228 366 229

C366 229 371 235 377 242

C388 255 388 255 386 261

C384 270 380 278 373 284

C361 296 344 301 309 303

C301 303 294 304 294 304

L294 303

L301 301

C322 294 340 287 352 278

C360 274 373 261 373 260

C373 259 367 254 361 248

C346 236 326 216 319 205

C308 190 298 166 295 147

L294 139

L293 139

C292 139 289 140 285 142

C278 145 278 145 278 171

C277 185 276 203 276 212

C273 233 269 268 268 270

L268 272

L267 222

C267 184 267 169 266 159

C265 151 264 145 264 144

C262 143 231 156 209 167

C137 203 82 257 72 298

C70 309 71 323 74 333

C79 347 86 357 99 369

L106 377

L106 377

C106 377 101 374 96 371

Z

M392 364

C392 364 393 363 394 362

C400 359 485 300 497 291

C538 261 569 225 576 199

C581 178 570 157 543 137

C501 105 443 90 371 94

C359 95 347 95 343 96

C339 97 334 97 333 97

L330 97

L334 92

C336 90 339 87 341 87

C344 86 369 83 388 82

C417 81 446 83 469 88

C508 97 549 116 577 140

C590 150 595 157 598 168

C600 175 599 195 597 204

C587 242 556 278 501 315

C476 331 463 338 445 345

C437 348 422 354 411 358

L392 365

L392 364

Z

M224 362

C171 356 152 325 181 294

C193 281 216 265 246 250

C254 246 260 243 260 243

L261 243

L261 248

C261 254 261 254 251 259

C220 277 194 298 188 310

C184 319 186 328 193 334

C204 345 225 350 253 350

C277 350 297 347 326 341

C340 337 340 337 351 340

L361 344

L361 344

L361 345

L358 345

C357 346 349 347 342 349

C297 359 248 365 224 362

Z

M356 337

C346 334 339 327 337 321

C336 314 340 311 352 309

L359 307

L359 307

C359 308 357 310 355 312

C352 315 350 318 350 319

C350 321 353 324 357 326

C366 329 380 324 383 317

C385 313 384 311 379 307

C378 305 376 304 376 304

L376 303

L381 305

C391 309 398 317 397 323

C394 333 370 341 356 337

Z

M251 336

C230 333 224 331 213 326

C207 323 205 321 205 317

L205 316

L218 320

C241 325 249 326 270 326

C286 326 292 326 302 324

C313 322 322 320 328 318

L330 318

L330 324

L330 330

L325 331

C309 334 291 336 273 336

C262 337 252 337 251 336

Z

"/>

<path fill="#c1c1c1" stroke="none" d="
M182 450

C156 448 128 444 100 437

L83 434

L83 433

L83 432

L130 432

C177 431 197 430 235 426

C350 413 426 386 504 328

C530 308 562 279 582 255

L591 245

L592 245

L592 246

L589 254

C572 298 539 339 499 368

C442 411 345 443 252 450

C236 451 198 451 182 450

Z

M121 420

C97 417 77 412 61 405

C44 396 28 383 18 369

C10 357 2 338 2 328

C2 326 2 324 1 324

C1 323 1 304 1 302

C2 301 2 298 2 295

C3 282 11 263 23 246

C44 215 77 187 130 156

C145 148 184 128 200 121

C210 116 210 116 221 119

C227 121 232 123 232 123

L233 124

L225 127

C210 132 173 148 152 159

C91 190 59 216 41 252

C29 277 26 309 34 336

C36 345 43 358 49 364

C81 400 144 408 277 392

C300 390 338 384 344 383

L348 382

L347 383

C345 386 292 399 259 406

C239 411 205 416 187 419

C174 420 129 421 121 420

Z

M93 369

C47 339 31 306 48 271

C57 251 84 224 117 200

C152 176 203 150 248 135

C255 133 261 130 261 130

C262 130 261 127 261 125

L260 120

L256 120

C249 120 241 118 234 115

C225 110 222 105 225 97

L226 94

L227 94

C228 94 229 95 230 96

C239 108 270 108 292 97

C304 91 311 83 312 72

C313 62 310 56 302 52

C296 49 282 50 273 53

L271 54

L273 58

C274 61 277 65 279 67

L282 72

L282 72

C281 73 253 82 252 82

C252 82 253 80 253 77

C253 75 254 70 255 67

L256 60

L254 60

C254 60 249 62 244 64

C237 67 235 68 231 67

L227 67

L227 66

C227 65 241 56 249 52

C256 49 256 49 256 40

L256 32

L250 30

C239 27 237 23 244 17

C250 11 263 6 272 6

C279 6 282 9 282 15

C282 19 281 20 277 24

C272 29 268 36 268 40

L268 43

L270 43

C276 40 287 38 295 38

C318 38 337 52 337 70

C337 79 327 93 313 102

C306 106 306 106 306 113

L306 119

L309 119

C338 113 358 112 389 112

C439 112 481 119 513 135

C543 149 561 171 562 196

C563 211 564 208 542 230

L523 249

L522 249

L522 248

L524 243

C528 234 532 221 533 210

C537 177 521 154 486 140

C471 134 455 130 433 126

C418 124 362 124 347 126

C324 129 310 131 309 133

C308 135 315 152 321 164

C327 176 337 192 348 206

C354 214 354 214 361 212

C371 210 391 208 400 208

C422 208 435 214 440 227

C441 229 441 234 441 239

C441 246 441 247 438 254

C434 262 425 273 420 277

L417 279

L417 277

C422 265 425 247 424 238

C423 232 419 227 414 225

C408 222 391 222 377 225

C371 227 367 228 366 229

C366 229 371 235 377 242

C388 255 388 255 386 261

C383 275 373 287 361 293

C349 298 330 302 304 303

L295 304

L296 303

C296 303 299 302 302 301

C321 295 340 286 352 278

C360 274 373 261 373 260

C373 259 367 254 361 248

C346 236 326 216 319 205

C308 190 298 166 295 147

L294 139

L293 139

C292 139 289 140 285 142

C278 145 278 145 278 171

C277 199 274 230 270 255

L270 259

L269 259

L268 259

L268 215

C267 176 265 146 264 144

C262 143 231 156 209 167

C137 203 82 257 72 298

C71 304 71 309 71 316

C72 335 81 352 98 369

L105 376

L104 376

C104 376 99 373 93 369

Z

M392 364

C392 364 393 363 394 362

C400 359 485 300 497 291

C538 261 569 225 576 199

C581 178 570 157 543 137

C501 105 443 90 371 94

C359 95 347 95 343 96

C339 97 334 97 333 97

L330 97

L334 92

C336 90 339 87 341 87

C344 86 369 83 388 82

C440 80 478 87 522 106

C549 118 578 138 589 151

C594 157 598 166 598 170

C598 171 598 173 599 173

C599 174 599 192 599 194

C598 195 598 198 598 201

C596 212 586 234 573 251

C556 274 522 302 483 326

C464 338 461 339 412 357

C403 360 395 364 394 364

L392 365

L392 364

Z

M224 362

C171 356 152 325 181 294

C193 281 216 265 246 250

C254 246 260 243 260 243

L261 243

L261 248

C261 254 261 254 251 259

C220 277 194 298 188 310

C184 319 186 328 193 334

C204 345 225 350 253 350

C277 350 297 347 326 341

C340 337 340 337 351 340

L361 344

L361 344

L361 345

L358 345

C357 346 349 347 342 349

C297 359 248 365 224 362

Z

M356 337

C346 334 339 327 337 321

C336 314 340 311 352 309

L359 307

L359 307

C359 308 357 310 355 312

C352 315 350 318 350 319

C350 321 353 324 357 326

C366 329 380 324 383 317

C385 313 384 311 379 307

C378 305 376 304 376 304

L376 303

L381 305

C391 309 398 317 397 323

C394 333 370 341 356 337

Z

M251 336

C230 333 224 331 213 326

C207 323 205 321 205 317

L205 316

L218 320

C241 325 249 326 270 326

C286 326 292 326 302 324

C313 322 322 320 328 318

L330 318

L330 324

L330 330

L325 331

C309 334 291 336 273 336

C262 337 252 337 251 336

Z

M267 263

L267 262

L268 263

L268 264

L268 265

L267 265

L267 263

Z

"/>

<path fill="#cfcfcf" stroke="none" d="
M182 450

C156 448 128 444 100 437

L83 434

L83 433

L83 432

L130 432

C177 431 197 430 235 426

C350 413 426 386 504 328

C530 308 562 279 582 255

L591 245

L592 245

L592 246

L589 254

C572 298 539 339 499 368

C442 411 345 443 252 450

C236 451 198 451 182 450

Z

M121 420

C97 417 77 412 61 405

C44 396 28 383 18 369

C10 357 2 338 2 328

C2 326 2 324 1 324

C1 323 1 304 1 302

C2 301 2 298 2 295

C3 282 11 263 23 246

C44 215 77 187 130 156

C145 148 184 128 200 121

C210 116 210 116 221 119

C227 121 232 123 232 123

L233 124

L225 127

C210 132 173 148 152 159

C91 190 59 216 41 252

C29 277 26 309 34 336

C36 345 43 358 49 364

C81 400 144 408 277 392

C298 390 338 384 343 383

L345 383

L345 384

L345 385

L330 389

C280 403 228 414 187 419

C174 420 129 421 121 420

Z

M93 369

C47 339 31 306 48 271

C57 251 84 224 117 200

C152 176 203 150 248 135

C255 133 261 130 261 130

C262 130 261 127 261 125

L260 120

L256 120

C249 120 241 118 234 115

C225 110 222 105 225 97

L226 94

L227 94

C228 94 229 95 230 96

C239 108 270 108 292 97

C304 91 311 83 312 72

C313 62 310 56 302 52

C296 49 282 50 273 53

L271 54

L273 58

C274 61 277 65 279 67

L282 72

L282 72

C281 73 253 82 252 82

C252 82 253 80 253 77

C253 75 254 70 255 67

L256 60

L254 60

C254 60 249 62 244 64

C237 67 235 68 231 67

L227 67

L227 66

C227 65 241 56 249 52

C256 49 256 49 256 40

L256 32

L250 30

C239 27 237 23 244 17

C250 11 263 6 272 6

C279 6 282 9 282 15

C282 19 281 20 277 24

C272 29 268 36 268 40

L268 43

L270 43

C276 40 287 38 295 38

C318 38 337 52 337 70

C337 79 327 93 313 102

C306 106 306 106 306 113

L306 119

L309 119

C338 113 358 112 389 112

C439 112 481 119 513 135

C543 149 561 171 562 196

C563 211 564 208 542 230

L523 249

L522 249

L522 248

L524 243

C528 234 532 221 533 210

C537 177 521 154 486 140

C471 134 455 130 433 126

C418 124 362 124 347 126

C324 129 310 131 309 133

C308 135 315 152 321 164

C327 176 337 192 348 206

C354 214 354 214 361 212

C371 210 391 208 400 208

C422 208 435 214 440 227

C441 229 441 234 441 239

C441 246 441 247 438 254

C434 262 425 273 420 277

L417 279

L417 277

C422 265 425 247 424 238

C423 232 419 227 414 225

C408 222 391 222 377 225

C371 227 367 228 366 229

C366 229 371 235 377 242

C388 255 388 255 386 261

C382 280 368 292 347 298

C338 300 319 303 305 303

L296 304

L296 303

L296 302

L302 301

C320 295 340 286 352 278

C360 274 373 261 373 260

C373 259 367 254 361 248

C346 236 326 216 319 205

C308 190 298 166 295 147

L294 139

L293 139

C292 139 289 140 285 142

C278 145 278 145 278 171

C277 199 274 230 270 255

L270 259

L269 259

L268 259

L268 215

C267 176 265 146 264 144

C262 143 231 156 209 167

C137 203 82 257 72 298

C71 304 71 309 71 316

C72 335 81 352 98 369

L105 376

L104 376

C104 376 99 373 93 369

Z

M393 364

C393 363 403 356 415 348

C451 323 489 297 497 291

C538 261 569 225 576 199

C581 178 570 157 543 137

C501 105 443 90 371 94

C359 95 347 95 343 96

C339 97 334 97 333 97

L330 97

L334 92

C336 90 339 87 341 87

C344 86 369 83 388 82

C440 80 478 87 522 106

C549 118 578 138 589 151

C594 157 598 166 598 170

C598 171 598 173 599 173

C599 174 599 192 599 194

C598 195 598 198 598 201

C596 212 586 234 573 251

C549 284 487 330 447 344

C409 358 398 362 396 363

L393 364

L393 364

Z

M224 362

C171 356 152 325 181 294

C193 281 216 265 246 250

C254 246 260 243 260 243

L261 243

L261 248

C261 254 261 254 251 259

C220 277 194 298 188 310

C184 319 186 328 193 334

C204 345 225 350 253 350

C277 350 297 347 326 341

C340 337 340 337 351 340

L361 344

L361 344

L361 345

L358 345

C357 346 349 347 342 349

C297 359 248 365 224 362

Z

M356 337

C346 334 339 327 337 321

C336 314 340 311 352 309

L359 307

L359 307

C359 308 357 310 355 312

C352 315 350 318 350 319

C350 321 353 324 357 326

C366 329 380 324 383 317

C385 313 384 311 379 307

C378 305 376 304 376 304

L376 303

L381 305

C391 309 398 317 397 323

C394 333 370 341 356 337

Z

M251 336

C230 333 224 331 213 326

C207 323 205 321 205 317

L205 316

L218 320

C241 325 249 326 270 326

C286 326 292 326 302 324

C313 322 322 320 328 318

L330 318

L330 324

L330 330

L325 331

C309 334 291 336 273 336

C262 337 252 337 251 336

Z

M267 263

L267 262

L268 263

L268 264

L268 265

L267 265

L267 263

Z

"/>

<path fill="#acffff" stroke="none" d="
M182 450

C156 448 125 443 98 437

L84 434

L84 433

L84 432

L130 432

C177 431 197 430 235 426

C350 413 426 386 504 328

C530 308 562 279 582 255

L591 245

L592 245

L592 246

L589 254

C572 298 539 339 499 368

C442 411 345 443 252 450

C236 451 198 451 182 450

Z

M121 420

C79 415 50 403 29 381

C14 367 2 342 2 328

L2 323

L1 323

L1 323

L1 313

L1 303

L1 303

L2 303

L2 296

C4 276 18 248 39 225

C60 202 89 180 130 156

C145 148 184 128 200 121

C210 116 210 116 221 119

C227 121 232 123 232 123

L233 124

L225 127

C210 132 173 148 152 159

C118 176 97 189 78 205

C41 237 24 278 30 321

C32 334 34 340 40 350

C54 378 86 395 136 399

C175 402 243 398 319 387

C330 385 340 384 341 384

L343 384

L342 385

C341 387 289 400 259 406

C239 411 205 416 187 419

C174 420 129 421 121 420

Z

M93 369

C47 339 31 306 48 271

C57 251 84 224 117 200

C152 176 203 150 248 135

C255 133 261 130 261 130

C262 130 261 127 261 125

L260 120

L256 120

C249 120 241 118 234 115

C225 110 222 105 225 97

L226 94

L227 94

C228 94 229 95 230 96

C239 108 270 108 292 97

C304 91 311 83 312 72

C313 62 310 56 302 52

C296 49 282 50 273 53

L271 54

L273 58

C274 61 277 65 279 67

L282 72

L282 72

C281 73 253 82 252 82

C252 82 253 80 253 77

C253 75 254 70 255 67

L256 60

L254 60

C254 60 249 62 244 64

C237 67 235 68 231 67

L227 67

L227 66

C227 65 241 56 249 52

C256 49 256 49 256 40

L256 32

L250 30

C239 27 237 23 244 17

C250 11 263 6 272 6

C279 6 282 9 282 15

C282 19 281 20 277 24

C272 29 268 36 268 40

L268 43

L270 43

C276 40 287 38 295 38

C318 38 337 52 337 70

C337 79 327 93 313 102

C306 106 306 106 306 113

L306 119

L309 119

C338 113 358 112 389 112

C417 112 434 113 455 117

C517 129 552 151 561 185

C562 191 563 208 561 211

C560 213 524 247 523 248

L522 248

L524 243

C528 234 532 220 533 210

C537 177 521 154 486 140

C471 134 455 130 433 126

C418 124 362 124 347 126

C324 129 310 131 309 133

C308 135 315 152 321 164

C327 176 337 192 348 206

C354 214 354 214 361 212

C371 210 391 208 400 208

C422 208 435 214 440 227

C441 229 441 234 441 239

C441 246 441 247 438 254

C434 262 425 273 420 277

L417 279

L417 277

C422 265 425 247 424 238

C423 232 419 227 414 225

C408 222 391 222 377 225

C371 227 367 228 366 229

C366 229 371 235 377 242

C388 255 388 255 386 261

C382 280 368 292 347 298

C338 300 318 303 306 303

L298 304

L298 303

C298 302 303 300 310 298

C329 291 340 286 352 278

C360 274 373 261 373 260

C373 259 367 254 361 248

C346 236 326 216 319 205

C308 190 298 166 295 147

L294 139

L293 139

C292 139 289 140 285 142

C278 145 278 145 278 171

C277 198 274 234 270 255

L270 258

L269 258

L268 258

L268 214

C267 176 265 146 264 144

C262 143 231 156 209 167

C147 198 97 242 78 281

C64 312 71 342 98 368

L104 375

L104 375

L103 376

L93 369

Z

M224 362

C171 356 152 325 181 294

C193 281 216 265 246 250

C254 246 260 243 260 243

L261 243

L261 248

C261 254 261 254 251 259

C220 277 194 298 188 310

C184 319 186 328 193 334

C204 345 225 350 253 350

C277 350 297 347 326 341

C340 337 340 337 350 340

L360 343

L360 344

L360 345

L355 346

C308 358 250 365 224 362

Z

M395 362

C395 362 405 355 417 347

C448 326 488 297 497 291

C538 261 569 225 576 199

C581 178 570 157 543 137

C501 105 443 90 371 94

C359 95 347 95 343 96

C339 97 334 97 333 97

L330 97

L334 92

C336 90 339 87 341 87

C344 86 369 83 388 82

C440 80 478 87 522 106

C549 118 578 138 589 151

C594 157 598 166 598 170

L598 174

L599 174

L600 174

L600 184

L600 193

L599 193

L598 193

L598 199

C597 203 596 209 593 216

C580 250 551 281 501 315

C476 331 464 338 445 345

C403 361 396 363 395 363

L394 363

L395 362

Z

M356 337

C346 334 339 327 337 321

C336 314 340 311 352 309

L359 307

L359 307

C359 308 357 310 355 312

C352 315 350 318 350 319

C350 321 353 324 357 326

C366 329 380 324 383 317

C385 313 384 311 379 307

L376 304

L377 304

C380 304 386 307 390 310

C394 313 397 319 397 323

C394 333 370 341 356 337

Z

M251 336

C230 333 224 331 213 326

C207 323 205 321 205 317

L205 316

L218 320

C241 325 249 326 270 326

C286 326 292 326 302 324

C313 322 322 320 328 318

L330 318

L330 324

L330 330

L325 331

C309 334 291 336 273 336

C262 337 252 337 251 336

Z

"/>

<path fill="#e9e9e9" stroke="none" d="
M182 450

C156 448 125 443 98 437

L84 434

L84 433

L84 432

L130 432

C177 431 197 430 235 426

C350 413 426 386 504 328

C530 308 562 279 582 255

L591 245

L592 245

L592 246

L589 254

C572 298 539 339 499 368

C442 411 345 443 252 450

C236 451 198 451 182 450

Z

M121 420

C79 415 50 403 29 381

C14 367 2 342 2 328

L2 323

L1 323

L1 323

L1 313

L1 303

L1 303

L2 303

L2 296

C4 276 18 248 39 225

C60 202 89 180 130 156

C145 148 184 128 200 121

C210 116 210 116 221 119

C227 121 232 123 232 123

L233 124

L225 127

C210 132 173 148 152 159

C118 176 97 189 78 205

C41 237 24 278 30 321

C32 334 34 340 40 350

C54 378 86 395 136 399

C175 402 243 398 319 387

C330 385 340 384 341 384

L343 384

L342 385

C341 387 289 400 259 406

C239 411 205 416 187 419

C174 420 129 421 121 420

Z

M93 369

C47 339 31 306 48 271

C57 251 84 224 117 200

C152 176 203 150 248 135

C255 133 261 130 261 130

C262 130 261 127 261 125

L260 120

L256 120

C249 120 241 118 234 115

C225 110 222 105 225 97

L226 94

L227 94

C228 94 229 95 230 96

C239 108 270 108 292 97

C304 91 311 83 312 72

C313 62 310 56 302 52

C296 49 282 50 273 53

L271 54

L273 58

C274 61 277 65 279 67

L282 72

L282 72

C281 73 253 82 252 82

C252 82 253 80 253 77

C253 75 254 70 255 67

L256 60

L254 60

C254 60 249 62 244 64

C237 67 235 68 231 67

L227 67

L227 66

C227 65 241 56 249 52

C256 49 256 49 256 40

L256 32

L250 30

C239 27 237 23 244 17

C250 11 263 6 272 6

C279 6 282 9 282 15

C282 19 281 20 277 24

C272 29 268 36 268 40

L268 43

L270 43

C276 40 287 38 295 38

C318 38 337 52 337 70

C337 79 327 93 313 102

C306 106 306 106 306 113

L306 119

L309 119

C338 113 358 112 389 112

C417 112 434 113 455 117

C517 129 552 151 561 185

C562 191 563 208 561 211

C560 213 524 247 523 248

L522 248

L524 243

C528 234 532 220 533 210

C537 177 521 154 486 140

C471 134 455 130 433 126

C418 124 362 124 347 126

C324 129 310 131 309 133

C308 135 315 152 321 164

C327 176 337 192 348 206

C354 214 354 214 361 212

C371 210 391 208 400 208

C422 208 435 214 440 227

C441 229 441 234 441 239

C441 246 441 247 438 254

C434 262 425 273 420 277

L417 279

L417 277

C422 265 425 247 424 238

C423 232 419 227 414 225

C408 222 391 222 377 225

C371 227 367 228 366 229

C366 229 371 235 377 242

C388 255 388 255 386 261

C382 280 368 292 347 298

C338 300 318 303 306 303

L298 304

L298 303

C298 302 303 300 310 298

C329 291 340 286 352 278

C360 274 373 261 373 260

C373 259 367 254 361 248

C346 236 326 216 319 205

C308 190 298 166 295 147

L294 139

L293 139

C292 139 289 140 285 142

C278 145 278 145 278 171

C277 198 274 234 270 255

L270 258

L269 258

L268 258

L268 214

C267 176 265 146 264 144

C262 143 231 156 209 167

C147 198 97 242 78 281

C64 312 71 342 98 368

L104 375

L104 375

L103 376

L93 369

Z

M224 362

C171 356 152 325 181 294

C193 281 216 265 246 250

C254 246 260 243 260 243

L261 243

L261 248

C261 254 261 254 251 259

C220 277 194 298 188 310

C184 319 186 328 193 334

C204 345 225 350 253 350

C277 350 297 347 326 341

C340 337 340 337 350 340

L360 343

L360 344

L360 345

L355 346

C308 358 250 365 224 362

Z

M395 362

C395 362 405 355 417 347

C448 326 488 297 497 291

C538 261 569 225 576 199

C581 178 570 157 543 137

C501 105 443 90 371 94

C359 95 347 95 343 96

C339 97 334 97 333 97

L330 97

L334 92

C336 90 339 87 341 87

C344 86 369 83 388 82

C440 80 478 87 522 106

C549 118 578 138 589 151

C594 157 598 166 598 170

L598 174

L599 174

L600 174

L600 184

L600 193

L599 193

L598 193

L598 199

C597 203 596 209 593 216

C580 250 551 281 501 315

C476 331 464 338 445 345

C403 361 396 363 395 363

L394 363

L395 362

Z

M356 337

C346 334 339 327 337 321

C336 314 340 311 352 309

L359 307

L359 307

C359 308 357 310 355 312

C352 315 350 318 350 319

C350 321 353 324 357 326

C366 329 380 324 383 317

C385 313 384 311 379 307

L376 304

L377 304

C380 304 386 307 390 310

C394 313 397 319 397 323

C394 333 370 341 356 337

Z

M251 336

C230 333 224 331 213 326

C207 323 205 321 205 317

L205 316

L218 320

C241 325 249 326 270 326

C286 326 292 326 302 324

C313 322 322 320 328 318

L330 318

L330 324

L330 330

L325 331

C309 334 291 336 273 336

C262 337 252 337 251 336

Z

"/>

<path fill="#fcfcfc" stroke="none" d="
M182 450

C156 448 123 443 98 437

L85 434

L85 433

L85 432

L131 432

C177 431 197 430 235 426

C350 413 426 386 504 328

C529 308 560 281 580 258

C585 252 590 247 590 247

L591 247

L591 248

C591 250 580 273 574 284

C547 332 508 369 456 395

C398 425 323 445 252 450

C236 451 198 451 182 450

Z

M121 420

C79 415 50 403 29 381

C14 367 2 342 2 327

L2 322

L1 322

L1 323

L1 313

L1 303

L1 304

L2 304

L2 296

C3 277 18 249 39 225

C60 202 89 180 130 156

C145 148 184 128 200 121

C210 116 210 116 221 119

C227 121 232 123 232 123

L233 124

L225 127

C210 132 173 148 152 159

C118 176 97 189 78 205

C41 237 24 278 30 321

C32 334 34 340 40 350

C54 378 86 395 136 399

C175 402 243 398 319 387

C330 385 340 384 341 384

L342 384

L341 385

C340 386 330 389 299 397

C258 407 220 415 187 419

C174 420 129 421 121 420

Z

M90 367

C52 342 36 313 42 286

C48 261 75 230 117 200

C152 176 203 150 248 135

C255 133 261 130 261 130

C262 130 261 127 261 125

L260 120

L256 120

C249 120 241 118 234 115

C225 110 222 105 225 97

L226 94

L227 94

C228 94 229 95 230 96

C239 108 270 108 292 97

C304 91 311 83 312 72

C313 62 310 56 302 52

C296 49 282 50 273 53

L271 54

L273 58

C274 61 277 65 279 67

L282 72

L282 72

C281 73 253 82 252 82

C252 82 253 80 253 77

C253 75 254 70 255 67

L256 60

L254 60

C254 60 249 62 244 64

C237 67 235 68 231 67

L227 67

L227 66

C227 65 241 56 249 52

C256 49 256 49 256 40

L256 32

L250 30

C239 27 237 23 244 17

C250 11 263 6 272 6

C279 6 282 9 282 15

C282 19 281 20 277 24

C272 29 268 36 268 40

L268 43

L270 43

C276 40 287 38 295 38

C318 38 337 52 337 70

C337 79 327 93 313 102

C306 106 306 106 306 113

L306 119

L309 119

C338 113 358 112 389 112

C417 112 434 113 455 117

C517 129 552 151 561 185

C562 191 563 208 561 211

C560 213 526 245 524 246

L523 246

L526 240

C535 217 536 192 528 176

C518 151 487 135 436 127

C423 125 418 125 389 125

C369 125 353 125 347 126

C324 129 310 131 309 133

C308 135 315 152 321 164

C327 176 337 192 348 206

C354 214 354 214 361 212

C371 210 391 208 400 208

C422 208 435 214 440 227

C441 229 441 234 441 239

C441 246 441 247 438 254

C434 262 425 273 420 277

L417 279

L417 277

C422 265 425 247 424 238

C423 232 419 227 414 225

C408 222 391 222 377 225

C371 227 367 228 366 229

C366 229 371 235 377 242

C388 255 388 255 386 261

C384 270 380 278 373 284

C361 296 343 301 311 303

L299 304

L299 303

C299 302 301 301 303 300

C305 300 312 297 318 295

C331 290 343 285 352 278

C360 274 373 261 373 260

C373 259 367 254 361 248

C346 236 326 216 319 205

C308 190 298 166 295 147

L294 139

L293 139

C292 139 289 140 285 142

C278 145 278 145 278 171

C277 185 276 203 276 212

C274 229 271 251 270 255

L270 257

L269 257

L268 257

L268 214

C267 176 265 146 264 144

C262 143 231 156 209 167

C137 203 82 257 72 298

C67 322 76 347 96 367

C99 370 101 372 101 372

L101 373

L100 373

C99 373 94 370 90 367

Z

M224 362

C171 356 152 325 181 294

C193 281 216 265 246 250

C254 246 260 243 260 243

L261 243

L261 248

C261 254 261 254 251 259

C220 277 194 298 188 310

C184 319 186 328 193 334

C204 345 225 350 253 350

C277 350 297 347 326 341

C340 337 340 337 350 340

L359 343

L359 344

L359 345

L355 346

C338 350 302 357 280 360

C261 362 235 363 224 362

Z

M398 361

C398 360 405 355 414 349

C440 331 489 297 497 291

C539 261 569 225 576 199

C581 178 570 157 543 137

C501 105 443 90 371 94

C359 95 347 95 343 96

C339 97 334 97 333 97

L330 97

L334 92

C336 90 339 87 341 87

C344 86 369 83 388 82

C440 80 478 87 522 106

C549 118 578 138 589 151

C594 157 598 166 598 171

L598 175

L599 175

L600 174

L599 188

C598 205 596 212 588 228

C573 257 545 285 501 315

C477 331 463 338 447 344

C412 357 399 362 398 362

L397 362

L398 361

Z

M356 337

C349 335 346 332 342 328

C338 324 336 318 338 315

C340 312 346 309 353 308

L359 308

L354 312

C349 318 349 320 352 323

C358 329 371 328 379 322

C385 317 385 314 381 309

L378 305

L378 304

L379 304

L383 305

C391 309 398 317 397 323

C394 333 370 341 356 337

Z

M251 336

C230 333 224 331 213 326

C207 323 205 321 205 317

L205 316

L218 320

C241 325 249 326 270 326

C286 326 292 326 302 324

C313 322 322 320 328 318

L330 318

L330 324

L330 330

L325 331

C309 334 291 336 273 336

C262 337 252 337 251 336

Z

"/>

<path fill="#ffffff" stroke="none" d="
M182 450

C156 448 123 443 98 437

L85 434

L85 433

L85 432

L131 432

C177 431 197 430 235 426

C350 413 426 386 504 328

C529 308 560 281 580 258

C585 252 590 247 590 247

L591 247

L591 248

C591 250 580 273 574 284

C547 332 508 369 456 395

C398 425 323 445 252 450

C236 451 198 451 182 450

Z

M121 420

C79 415 50 403 29 381

C21 373 15 365 10 354

C2 339 2 335 2 310

C3 289 3 288 5 281

C21 235 59 197 130 156

C145 148 184 128 200 121

C210 116 210 116 221 119

C227 121 232 123 232 123

L233 124

L225 127

C210 132 173 148 152 159

C118 176 97 189 78 205

C41 237 24 278 30 321

C32 334 34 340 40 350

C54 378 86 395 136 399

C175 402 243 398 319 387

C330 385 340 384 340 384

L341 384

L340 385

C338 387 292 399 259 406

C239 411 205 416 187 419

C174 420 129 421 121 420

Z

M90 367

C52 342 36 313 42 286

C48 261 75 230 117 200

C152 176 203 150 248 135

C255 133 261 130 261 130

C262 130 261 127 261 125

L260 120

L256 120

C249 120 241 118 234 115

C225 110 222 105 225 97

L226 94

L227 94

C228 94 229 95 230 96

C239 108 270 108 292 97

C304 91 311 83 312 72

C313 62 310 56 302 52

C296 49 282 50 273 53

L271 54

L273 58

C274 61 277 65 279 67

L282 72

L282 72

C281 73 253 82 252 82

C252 82 253 80 253 77

C253 75 254 70 255 67

L256 60

L254 60

C254 60 249 62 244 64

C237 67 235 68 231 67

L227 67

L227 66

C227 65 241 56 249 52

C256 49 256 49 256 40

L256 32

L250 30

C239 27 237 23 244 17

C250 11 263 6 272 6

C279 6 282 9 282 15

C282 19 281 20 277 24

C272 29 268 36 268 40

L268 43

L270 43

C276 40 287 38 295 38

C318 38 337 52 337 70

C337 79 327 93 313 102

C306 106 306 106 306 113

L306 119

L309 119

C338 113 358 112 389 112

C417 112 434 113 455 117

C517 129 552 151 561 185

C562 191 563 208 561 211

C560 213 526 245 524 246

L523 246

L526 240

C535 217 536 192 528 176

C518 151 487 135 436 127

C423 125 418 125 389 125

C369 125 353 125 347 126

C324 129 310 131 309 133

C308 135 315 152 321 164

C327 176 337 192 348 206

C354 214 354 214 361 212

C371 210 391 208 400 208

C422 208 435 214 440 227

C441 229 441 234 441 239

C441 246 441 247 438 254

C434 262 425 273 420 277

L417 279

L417 277

C422 265 425 247 424 238

C423 232 419 227 414 225

C408 222 391 222 377 225

C371 227 367 228 366 229

C366 229 371 235 377 242

C388 255 388 255 386 261

C382 280 368 292 347 298

C336 301 315 303 307 303

L300 303

L303 301

C305 300 312 297 318 295

C331 290 343 285 352 278

C360 274 373 261 373 260

C373 259 367 254 361 248

C346 236 326 216 319 205

C308 190 298 166 295 147

L294 139

L293 139

C292 139 289 140 285 142

C278 145 278 145 278 171

C277 185 276 203 276 212

C274 229 271 251 270 255

L270 257

L269 257

L268 257

L268 214

C267 176 265 146 264 144

C262 143 231 156 209 167

C137 203 82 257 72 298

C67 321 76 346 95 366

L100 371

L99 372

L98 373

L90 367

Z

M224 362

C171 356 152 325 181 294

C193 281 216 265 246 250

C254 246 260 243 260 243

L261 243

L261 248

C261 254 261 254 251 259

C220 277 194 298 188 310

C184 319 186 328 193 334

C204 345 225 350 253 350

C277 350 297 347 326 341

C340 337 340 337 350 340

L359 343

L359 344

L359 345

L355 346

C338 350 302 357 280 360

C261 362 235 363 224 362

Z

M398 361

L398 360

L398 360

C398 359 407 353 418 346

C451 323 489 297 497 291

C538 261 569 225 576 199

C581 178 570 157 543 137

C501 105 443 90 371 94

C359 95 347 95 343 96

C339 97 334 97 333 97

L330 97

L334 92

C336 90 339 87 341 87

C344 86 369 83 388 82

C417 81 446 83 469 88

C508 97 549 116 577 140

C587 148 592 154 595 161

C598 166 598 167 598 185

C598 205 597 210 588 228

C572 260 536 294 483 326

C464 338 461 339 432 350

C423 353 412 357 407 359

L399 362

L398 361

Z

M356 337

C349 335 346 332 342 328

C338 324 336 318 338 315

C340 312 346 309 353 308

L359 308

L354 312

C349 318 349 320 352 323

C358 329 371 328 379 322

C385 317 385 314 381 309

L378 305

L378 304

L379 304

L383 305

C391 309 398 317 397 323

C394 333 370 341 356 337

Z

M251 336

C230 333 224 331 213 326

C207 323 205 321 205 317

L205 316

L218 320

C241 325 249 326 270 326

C286 326 292 326 302 324

C313 322 322 320 328 318

L330 318

L330 324

L330 330

L325 331

C309 334 291 336 273 336

C262 337 252 337 251 336

Z

"/>

</svg>

